<?xml version="1.0" encoding="UTF-8" standalone="no"?>
<svg width="106px" height="106px" viewBox="0 0 106 106" version="1.1" xmlns="http://www.w3.org/2000/svg" xmlns:xlink="http://www.w3.org/1999/xlink">
    <!-- Generator: Sketch 40.3 (33839) - http://www.bohemiancoding.com/sketch -->
    <title>logoBlack</title>
    <desc>Created with Sketch.</desc>
    <defs>
        <circle id="path-1" cx="50" cy="50" r="50"></circle>
        <circle id="path-3" cx="50" cy="50" r="50"></circle>
    </defs>
    <g id="Page-1" stroke="none" stroke-width="1" fill="none" fill-rule="evenodd">
        <g id="logoBlack" transform="translate(3.000000, 3.000000)">
            <g id="Group-4">
                <g id="Page-1">
                    <g id="Group-4">
                        <g id="path-1" stroke-width="6" stroke="#FFFFFF">
                            <circle cx="50" cy="50" r="50"></circle>
                        </g>
                        <g id="Group-3-Clipped">
                            <mask id="mask-2" fill="white">
                                <use xlink:href="#path-1"></use>
                            </mask>
                            <g id="path-1"></g>
                            <g id="Group-3" mask="url(#mask-2)">
                                <g transform="translate(-4.000000, 19.000000)" id="Sine_wave">
                                    <g transform="translate(0.041667, 0.791667)">
                                        <g id="Group" transform="translate(-0.000000, 0.000000)" stroke-width="6" stroke="#FFFFFF">
                                            <g id="Sine-wave" transform="translate(-0.000000, 0.000000)">
                                                <polyline id="Shape" points="4.26325641e-14 20.8349421 0.106644791 20.4224331 0.213289582 20.0120772 0.319934372 19.6034436 0.426579163 19.1965323 0.533223954 18.7922046 0.639868745 18.3900299 0.746513536 17.9904387 0.853158326 17.5930005 0.959803117 17.1981459 1.06644791 16.8063055 1.1730927 16.4166179 1.27973749 16.0299446 1.38638228 15.6462855 1.49302707 15.2656404 1.59967186 14.8875789 1.70631665 14.5133929 1.81296144 14.1417902 1.91960623 13.7736325 2.02625103 13.4089194 2.13289582 13.0480817 2.23954061 12.6902582 2.3461854 12.33631 2.45283019 11.9862371 2.55947498 11.639609 2.66611977 11.2968562 2.77276456 10.9584094 2.87940935 10.623838 2.98605414 10.2931418 3.09269893 9.96675168 3.19934372 9.64466744 3.30598852 9.32688909 3.41263331 9.01341671 3.5192781 8.70468088 3.62592289 8.40025098 3.73256768 8.10055761 3.83921247 7.80517018 3.94585726 7.51494988 4.05250205 7.22946611 4.15914684 6.94871888 4.26579163 6.67270818 4.37243642 6.40186461 4.47908121 6.13618816 4.585726 5.87567884 4.6923708 5.62033665 4.79901559 5.37016158 4.90566038 5.12515364 5.01230517 4.88531283 5.11894996 4.65106973 5.22559475 4.42242437 5.33223954 4.19937672 5.43888433 3.9814962 5.54552912 3.7692134 5.65217391 3.56295891 5.7588187 3.36230214 5.86546349 3.1672431 5.97210829 2.97778178 6.07875308 2.79434876 6.18539787 2.61694408 6.29204266 2.4451371 6.39868745 2.27935844 6.50533224 2.1196081 6.71862182 1.81819235 6.9319114 1.54088987 7.14520098 1.28856183 7.35849057 1.06077765 7.57178015 0.857967918 7.78506973 0.680563224 7.99835931 0.528563571 8.21164889 0.401968959 8.42493847 0.300779389 8.74487285 0.197436849 9.06480722 0.152224487 9.38474159 0.164711711 9.70467596 0.235759707 10.0246103 0.364507289 10.2378999 0.482490022 10.4511895 0.625877796 10.6644791 0.794670612 10.8777687 0.988868469 11.0910582 1.20804077 11.3043478 1.45218752 11.5176374 1.72087813 11.730927 2.01411259 11.9442166 2.3314603 12.0508614 2.49896133 12.1575062 2.67292129 12.2641509 2.85204835 12.3707957 3.03763433 12.4774405 3.22838743 12.5840853 3.42559944 12.6907301 3.62797859 12.7973749 3.83638604 12.9040197 4.05039122 13.0106645 4.26956353 13.1173093 4.49476414 13.2239541 4.72513189 13.3305989 4.96109736 13.4372436 5.20266055 13.5438884 5.44896026 13.6505332 5.70085771 13.757178 5.95835287 13.8638228 6.22058456 13.9704676 6.48798339 14.0771124 6.76011875 14.1837572 7.03742123 14.290402 7.31989084 14.3970468 7.60709699 14.5036916 7.89860906 14.6103363 8.19528827 14.7169811 8.49670402 14.8236259 8.8024257 14.9302707 9.11288391 15.0369155 9.42764807 15.1435603 9.74671812 15.2502051 10.0700942 15.3568499 10.3977762 15.4634947 10.7297641 15.5701395 11.0656273 15.6767842 11.4057965 15.783429 11.7494105 15.8900738 12.0973303 15.9967186 12.448695 16.1033634 12.803935 16.2100082 13.1626197 16.316653 13.5247492 16.4232978 13.8907541 16.5299426 14.259773 16.6365874 14.6322368 16.7432322 15.0077147 16.8498769 15.3866373 16.9565217 15.7681435 17.0631665 16.1530945 17.1698113 16.540629 17.2764561 16.9307471 17.3831009 17.3238793 17.4897457 17.7195951 17.5963905 18.1174639 17.7030353 18.5179162 17.8096801 18.9209521 17.9163249 19.326141 18.0229696 19.7330523 18.1296144 20.1425471 18.2362592 20.5537643 18.342904 20.9667039 18.4495488 21.3817964 18.5561936 21.7981807 18.6628384 22.2162874 18.7694832 22.6361165 18.876128 23.0572374 18.9827728 23.47965 19.0894176 23.9029238 19.1960623 24.3279199 19.3027071 24.7533468 19.4093519 25.1800654 19.5159967 25.6076451 19.6226415 26.0356555 19.7292863 26.464527 19.8359311 26.8938291 19.9425759 27.3235619 20.0492207 27.7537252 20.1558655 28.1843191 20.2625103 28.6149131 20.369155 29.045507 20.4757998 29.4756703 20.5824446 29.9062642 20.6890894 30.3364275 20.7957342 30.7661603 20.902379 31.1954624 21.0090238 31.6247645 21.1156686 32.0527749 21.2223134 32.4803547 21.3289582 32.9070732 21.435603 33.3329306 21.5422477 33.7574962 21.6488925 34.1812007 21.7555373 34.6040438 21.8621821 35.0251647 21.9688269 35.4449938 22.0754717 35.8631004 22.1821165 36.2799154 22.2887613 36.6950079 22.3954061 37.1083781 22.5020509 37.5200258 22.6086957 37.9295206 22.7153404 38.3368625 22.8219852 38.742482 22.92863 39.1455179 23.0352748 39.5464008 23.1419196 39.9447001 23.2485644 40.340416 23.3552092 40.7339788 23.461854 41.1245276 23.5684988 41.5124926 23.6751436 41.8974436 23.7817884 42.2793804 23.8884331 42.6587337 23.9950779 43.0346422 24.1017227 43.4075365 24.2083675 43.776986 24.3150123 44.1429909 24.4216571 44.5059816 24.5283019 44.8650969 24.6349467 45.2207674 24.7415915 45.5725627 24.8482363 45.9209132 24.9548811 46.2649577 25.0615258 46.6055575 25.1681706 46.9418514 25.2748154 47.2742698 25.3814602 47.6023824 25.488105 47.926189 25.5947498 48.2461204 25.7013946 48.561315 25.8080394 48.8722039 25.9146842 49.1787868 26.021329 49.4806331 26.1279737 49.7777429 26.2346185 50.0701161 26.3412633 50.3577529 26.4479081 50.6406531 26.5545529 50.9188168 26.6611977 51.1918133 26.7678425 51.4596427 26.8744873 51.722305 26.9811321 51.9802307 27.0877769 52.2325588 27.1944217 52.4801503 27.3010664 52.7221441 27.4077112 52.9585402 27.514356 53.1897691 27.6210008 53.4154003 27.7276456 53.6354338 27.8342904 53.8503002 27.9409352 54.0591382 28.04758 54.2623785 28.1542248 54.4600211 28.2608696 54.6516354 28.3675144 54.837652 28.4741591 55.0180709 28.5808039 55.1924614 28.6874487 55.3608236 28.7940935 55.5231575 29.0073831 55.8297404 29.2206727 56.11221 29.4339623 56.3701357 29.6472518 56.6035177 29.8605414 56.8114946 30.073831 56.9944969 30.2871206 57.1525249 30.5004102 57.2847173 30.7136998 57.3915045 31.0336341 57.5030283 31.3535685 57.5568526 31.6735029 57.5525467 31.9934372 57.4905412 32.3133716 57.3699748 32.5266612 57.2575899 32.7399508 57.1197998 32.9532404 56.9566047 33.1665299 56.7680046 33.3798195 56.55443 33.5931091 56.3154503 33.8063987 56.0523575 34.0196883 55.7642901 34.2329779 55.4525401 34.3396226 55.2871921 34.4462674 55.1162463 34.5529122 54.9397028 34.659557 54.7567004 34.7662018 54.5681002 34.8728466 54.3739023 34.9794914 54.1736762 35.0861362 53.9678523 35.192781 53.7564307 35.2994258 53.5394114 35.4060705 53.3167943 35.5127153 53.0885795 35.6193601 52.8551976 35.7260049 52.616218 35.8326497 52.3720712 35.9392945 52.1223268 36.0459393 51.8674152 36.1525841 51.6077671 36.2592289 51.3425212 36.3658737 51.0721082 36.4725185 50.7969587 36.5791632 50.5170726 36.685808 50.2320195 36.7924528 49.9422298 36.8990976 49.6477035 37.0057424 49.3484407 37.1123872 49.0444415 37.219032 48.7361362 37.3256768 48.423525 37.4323216 48.1061773 37.5389664 47.7845236 37.6456112 47.4585641 37.7522559 47.1287291 37.8589007 46.7945882 37.9655455 46.4561414 38.0721903 46.1142499 38.1788351 45.7680524 38.2854799 45.41841 38.3921247 45.0648925 38.4987695 44.7074995 38.6054143 44.3466618 38.7120591 43.98281 38.8187039 43.6150828 38.9253486 43.2439108 39.0319934 42.8697247 39.1386382 42.4925244 39.245283 42.1118794 39.3519278 41.7286508 39.4585726 41.342408 39.5652174 40.9531511 39.6718622 40.5613106 39.778507 40.1668867 39.8851518 39.7698791 39.9917966 39.3702879 40.0984413 38.9685438 40.2050861 38.5642161 40.3117309 38.158166 40.4183757 37.7495324 40.5250205 37.3391764 40.6316653 36.927098 40.7383101 36.5128667 40.8449549 36.096913 40.9515997 35.6796675 41.0582445 35.2606996 41.1648893 34.8400093 41.271534 34.4184578 41.3781788 33.9951841 41.4848236 33.571049 41.5914684 33.1460528 41.6981132 32.7197648 41.804758 32.2926157 41.9114028 31.8646053 42.0180476 31.4361644 42.1246924 31.0068623 42.2313372 30.5775601 42.337982 30.1473968 42.4446267 29.7172335 42.5512715 29.2866396 42.6579163 28.8560457 42.7645611 28.4254517 42.8712059 27.9948578 42.9778507 27.5646944 43.0844955 27.1345311 43.1911403 26.705229 43.2977851 26.2759269 43.4044299 25.8474859 43.5110747 25.4194756 43.6177194 24.9923264 43.7243642 24.5660385 43.831009 24.1410422 43.9376538 23.7169073 44.0442986 23.2936334 44.1509434 22.8720819 44.2575882 22.4513917 44.364233 22.0324238 44.4708778 21.6151783 44.5775226 21.1992246 44.6841674 20.7849933 44.7908121 20.3729148 44.8974569 19.9625588 45.0041017 19.5539252 45.1107465 19.1478751 45.2173913 18.7435475 45.3240361 18.3418033 45.4306809 17.9422121 45.5373257 17.5452046 45.6439705 17.1507806 45.7506153 16.7589401 45.85726 16.3696832 45.9639048 15.9834404 46.0705496 15.6002119 46.1771944 15.2195669 46.2838392 14.8423665 46.390484 14.4681805 46.4971288 14.0970085 46.6037736 13.7292813 46.7104184 13.3654294 46.8170632 13.0045917 46.923708 12.6471988 47.0303527 12.2936812 47.1369975 11.9440389 47.2436423 11.5978414 47.3502871 11.2559498 47.4569319 10.917503 47.5635767 10.5833622 47.6702215 10.2535272 47.7768663 9.92756758 47.8835111 9.60591392 47.9901559 9.28856623 48.0968007 8.97595505 48.2034454 8.6676498 48.3100902 8.3636505 48.416735 8.06438772 48.5233798 7.76986148 48.6300246 7.48007178 48.7366694 7.1950186 48.8433142 6.91513255 48.949959 6.63998304 49.0566038 6.36957006 49.1632486 6.10432421 49.2698934 5.84467607 49.3765381 5.58976448 49.4831829 5.34002001 49.5898277 5.09587326 49.6964725 4.85689363 49.8031173 4.62351172 49.9097621 4.39529695 50.0164069 4.1726799 50.1230517 3.95566056 50.2296965 3.74423894 50.3363413 3.53841506 50.4429861 3.33818888 50.5496308 3.14399102 50.6562756 2.95539089 50.7629204 2.77238847 50.8695652 2.59584497 50.97621 2.42489918 51.0828548 2.25955112 51.1894996 2.10066197 51.4027892 1.800538 51.6160788 1.5249579 51.8293683 1.27392164 52.0426579 1.04785983 52.2559475 0.846772476 52.4692371 0.670659564 52.6825267 0.519951693 52.8958162 0.395079456 53.1091058 0.295612262 53.4290402 0.194422691 53.7489746 0.151363299 54.0689089 0.166434086 54.3888433 0.239635052 54.7087777 0.370966198 54.9220673 0.490240713 55.1353568 0.635350863 55.3486464 0.805866054 55.561936 1.00135569 55.7752256 1.22225037 55.9885152 1.4676889 56.2018048 1.73810188 56.4150943 2.03262812 56.6283839 2.35126762 56.7350287 2.51962985 56.8416735 2.69402039 56.9483183 2.87443924 57.0549631 3.0604558 57.1616079 3.2520701 57.2682527 3.44971271 57.3748975 3.65295304 57.4815422 3.86179109 57.588187 4.07665746 57.6948318 4.29669094 57.8014766 4.52232215 57.9081214 4.75355109 58.0147662 4.98994715 58.121411 5.23194093 58.2280558 5.47953243 58.3347006 5.73186047 58.4413454 5.98978623 58.5479902 6.25244852 58.6546349 6.52027793 58.7612797 6.79327448 58.8679245 7.07143815 58.9745693 7.35433835 59.0812141 7.64197509 59.1878589 7.93434836 59.2945037 8.23145816 59.4011485 8.5333045 59.5077933 8.83988737 59.6144381 9.15077618 59.7210829 9.46597093 59.8277276 9.78590222 59.9343724 10.1097089 60.0410172 10.4378214 60.147662 10.7702399 60.2543068 11.1065337 60.3609516 11.4471335 60.4675964 11.7911781 60.5742412 12.1395286 60.680886 12.4913238 60.7875308 12.8469944 60.8941756 13.2061097 61.0008203 13.5691004 61.1074651 13.9351052 61.2141099 14.3045548 61.3207547 14.6774491 61.4273995 15.0533576 61.5340443 15.4327109 61.6406891 15.8146477 61.7473339 16.1995986 61.8539787 16.5875638 61.9606235 16.9781124 62.0672683 17.3716753 62.173913 17.7673911 62.2805578 18.1656904 62.3872026 18.5665733 62.4938474 18.9696092 62.6004922 19.3752287 62.707137 19.7825706 62.8137818 20.1920654 62.9204266 20.6037132 63.0270714 21.0170833 63.1337162 21.4321759 63.240361 21.8489908 63.3470057 22.2670975 63.4536505 22.6869266 63.5602953 23.1080474 63.6669401 23.5308907 63.7735849 23.954595 63.8802297 24.3791606 63.9868745 24.8050181 64.0935193 25.2317367 64.2001641 25.6593164 64.3068089 26.0873267 64.4134537 26.5166289 64.5200984 26.945931 64.6267432 27.3756637 64.733388 27.805827 64.8400328 28.236421 64.9466776 28.6665843 65.0533224 29.0971782 65.1599672 29.5277721 65.266612 29.958366 65.3732568 30.3885294 65.4799016 30.8182621 65.5865463 31.2475643 65.6931911 31.6764357 65.7998359 32.1044462 65.9064807 32.5320259 66.0131255 32.9587445 66.1197703 33.3841713 66.2264151 33.8091675 66.3330599 34.2324412 66.4397047 34.6548539 66.5463495 35.0759747 66.6529943 35.4958039 66.759639 35.9139105 66.8662838 36.3302948 66.9729286 36.7453874 67.0795734 37.1583269 67.1862182 37.5695441 67.292863 37.979039 67.3995078 38.3859502 67.5061526 38.7911391 67.6127974 39.194175 67.7194422 39.5946273 67.826087 39.9924961 67.9327317 40.3882119 68.0393765 40.7813442 68.1460213 41.1714623 68.2526661 41.5589968 68.3593109 41.9439478 68.4659557 42.325454 68.5726005 42.7043766 68.6792453 43.0798545 68.7858901 43.4523182 68.8925349 43.8213373 68.9991797 44.1873421 69.1058244 44.5494715 69.2124692 44.9081563 69.319114 45.2633963 69.4257588 45.6147609 69.5324036 45.9626808 69.6390484 46.3062948 69.7456932 46.6464639 69.852338 46.9823272 69.9589828 47.3143151 70.0656276 47.641997 70.1722724 47.9653731 70.2789171 48.2844432 70.3855619 48.5992073 70.4922067 48.9096655 70.5988515 49.2153872 70.7054963 49.516803 70.8121411 49.8134822 70.9187859 50.1049943 71.0254307 50.3922004 71.1320755 50.6746701 71.2387203 50.9519725 71.3453651 51.2241079 71.4520098 51.4915067 71.5586546 51.7537384 71.6652994 52.0112336 71.7719442 52.263131 71.878589 52.5094307 71.9852338 52.7509939 72.0918786 52.9869594 72.1985234 53.2173271 72.3051682 53.4425277 72.411813 53.6617 72.5184578 53.8757052 72.6251025 54.0841126 72.7317473 54.2864918 72.8383921 54.4837038 72.9450369 54.674457 73.0516817 54.8600429 73.1583265 55.0391699 73.2649713 55.2131299 73.3716161 55.380631 73.4782609 55.5421036 73.6915505 55.8473947 73.90484 56.1285726 74.1181296 56.384776 74.3314192 56.6168661 74.5447088 56.8235512 74.7579984 57.0048312 74.9712879 57.1611368 75.1845775 57.2916067 75.3978671 57.3971023 75.7178015 57.5064732 76.0377358 57.5581444 76.3576702 57.5512549 76.6776046 57.4866658 76.997539 57.3639465 77.2108285 57.2502698 77.4241181 57.1107573 77.6374077 56.9458398 77.8506973 56.7559479 78.0639869 56.540651 78.2772765 56.3003796 78.490566 56.0355643 78.7038556 55.7462052 78.9171452 55.4327328 79.02379 55.2669542 79.1304348 55.0951472 79.2370796 54.9177424 79.3437244 54.7343095 79.4503692 54.5448482 79.5570139 54.3497891 79.6636587 54.1491323 79.7703035 53.9428779 79.8769483 53.7305951 79.9835931 53.5127145 80.0902379 53.2896669 80.1968827 53.0610215 80.3035275 52.8267784 80.4101723 52.5869376 80.5168171 52.3419297 80.6234619 52.0917546 80.7301066 51.8364124 80.8367514 51.5759031 80.9433962 51.3097961 81.050041 51.0393831 81.1566858 50.7633723 81.2633306 50.4826252 81.3699754 50.1971414 81.4766202 49.9069211 81.583265 49.6115337 81.6899098 49.3118403 81.7965546 49.0074104 81.9031993 48.6986745 82.0098441 48.3852021 82.1164889 48.0674239 82.2231337 47.7453396 82.3297785 47.4189494 82.4364233 47.0882533 82.5430681 46.7536818 82.6497129 46.415235 82.7563577 46.0724822 82.8630025 45.7258541 82.9696473 45.3757813 83.076292 45.0218331 83.1829368 44.6640095 83.2895816 44.3031718 83.3962264 43.9384588 83.5028712 43.570301 83.609516 43.1986985 83.7161608 42.8245123 83.8228056 42.4464508 83.9294504 42.0658059 84.0360952 41.6821467 84.14274 41.2954733 84.2493847 40.9057858 84.3560295 40.5139454 84.4626743 40.1190907 84.5693191 39.7216525 84.6759639 39.3220614 84.7826087 38.9198867 84.8892535 38.515559 84.9958983 38.1086478 85.1025431 37.7000141 85.2091879 37.2896581 85.3158326 36.8771491"></polyline>
                                            </g>
                                        </g>
                                        <g id="Group" transform="translate(44.684167, 0.000000)" stroke-width="6" stroke="#FFFFFF">
                                            <g id="Sine-wave">
                                                <polyline id="Shape" points="0 20.8349421 0.106644791 20.4224331 0.213289582 20.0120772 0.319934372 19.6034436 0.426579163 19.1965323 0.533223954 18.7922046 0.639868745 18.3900299 0.746513536 17.9904387 0.853158326 17.5930005 0.959803117 17.1981459 1.06644791 16.8063055 1.1730927 16.4166179 1.27973749 16.0299446 1.38638228 15.6462855 1.49302707 15.2656404 1.59967186 14.8875789 1.70631665 14.5133929 1.81296144 14.1417902 1.91960623 13.7736325 2.02625103 13.4089194 2.13289582 13.0480817 2.23954061 12.6902582 2.3461854 12.33631 2.45283019 11.9862371 2.55947498 11.639609 2.66611977 11.2968562 2.77276456 10.9584094 2.87940935 10.623838 2.98605414 10.2931418 3.09269893 9.96675168 3.19934372 9.64466744 3.30598852 9.32688909 3.41263331 9.01341671 3.5192781 8.70468088 3.62592289 8.40025098 3.73256768 8.10055761 3.83921247 7.80517018 3.94585726 7.51494988 4.05250205 7.22946611 4.15914684 6.94871888 4.26579163 6.67270818 4.37243642 6.40186461 4.47908121 6.13618816 4.585726 5.87567884 4.6923708 5.62033665 4.79901559 5.37016158 4.90566038 5.12515364 5.01230517 4.88531283 5.11894996 4.65106973 5.22559475 4.42242437 5.33223954 4.19937672 5.43888433 3.9814962 5.54552912 3.7692134 5.65217391 3.56295891 5.7588187 3.36230214 5.86546349 3.1672431 5.97210829 2.97778178 6.07875308 2.79434876 6.18539787 2.61694408 6.29204266 2.4451371 6.39868745 2.27935844 6.50533224 2.1196081 6.71862182 1.81819235 6.9319114 1.54088987 7.14520098 1.28856183 7.35849057 1.06077765 7.57178015 0.857967918 7.78506973 0.680563224 7.99835931 0.528563571 8.21164889 0.401968959 8.42493847 0.300779389 8.74487285 0.197436849 9.06480722 0.152224487 9.38474159 0.164711711 9.70467596 0.235759707 10.0246103 0.364507289 10.2378999 0.482490022 10.4511895 0.625877796 10.6644791 0.794670612 10.8777687 0.988868469 11.0910582 1.20804077 11.3043478 1.45218752 11.5176374 1.72087813 11.730927 2.01411259 11.9442166 2.3314603 12.0508614 2.49896133 12.1575062 2.67292129 12.2641509 2.85204835 12.3707957 3.03763433 12.4774405 3.22838743 12.5840853 3.42559944 12.6907301 3.62797859 12.7973749 3.83638604 12.9040197 4.05039122 13.0106645 4.26956353 13.1173093 4.49476414 13.2239541 4.72513189 13.3305989 4.96109736 13.4372436 5.20266055 13.5438884 5.44896026 13.6505332 5.70085771 13.757178 5.95835287 13.8638228 6.22058456 13.9704676 6.48798339 14.0771124 6.76011875 14.1837572 7.03742123 14.290402 7.31989084 14.3970468 7.60709699 14.5036916 7.89860906 14.6103363 8.19528827 14.7169811 8.49670402 14.8236259 8.8024257 14.9302707 9.11288391 15.0369155 9.42764807 15.1435603 9.74671812 15.2502051 10.0700942 15.3568499 10.3977762 15.4634947 10.7297641 15.5701395 11.0656273 15.6767842 11.4057965 15.783429 11.7494105 15.8900738 12.0973303 15.9967186 12.448695 16.1033634 12.803935 16.2100082 13.1626197 16.316653 13.5247492 16.4232978 13.8907541 16.5299426 14.259773 16.6365874 14.6322368 16.7432322 15.0077147 16.8498769 15.3866373 16.9565217 15.7681435 17.0631665 16.1530945 17.1698113 16.540629 17.2764561 16.9307471 17.3831009 17.3238793 17.4897457 17.7195951 17.5963905 18.1174639 17.7030353 18.5179162 17.8096801 18.9209521 17.9163249 19.326141 18.0229696 19.7330523 18.1296144 20.1425471 18.2362592 20.5537643 18.342904 20.9667039 18.4495488 21.3817964 18.5561936 21.7981807 18.6628384 22.2162874 18.7694832 22.6361165 18.876128 23.0572374 18.9827728 23.47965 19.0894176 23.9029238 19.1960623 24.3279199 19.3027071 24.7533468 19.4093519 25.1800654 19.5159967 25.6076451 19.6226415 26.0356555 19.7292863 26.464527 19.8359311 26.8938291 19.9425759 27.3235619 20.0492207 27.7537252 20.1558655 28.1843191 20.2625103 28.6149131 20.369155 29.045507 20.4757998 29.4756703 20.5824446 29.9062642 20.6890894 30.3364275 20.7957342 30.7661603 20.902379 31.1954624 21.0090238 31.6247645 21.1156686 32.0527749 21.2223134 32.4803547 21.3289582 32.9070732 21.435603 33.3329306 21.5422477 33.7574962 21.6488925 34.1812007 21.7555373 34.6040438 21.8621821 35.0251647 21.9688269 35.4449938 22.0754717 35.8631004 22.1821165 36.2799154 22.2887613 36.6950079 22.3954061 37.1083781 22.5020509 37.5200258 22.6086957 37.9295206 22.7153404 38.3368625 22.8219852 38.742482 22.92863 39.1455179 23.0352748 39.5464008 23.1419196 39.9447001 23.2485644 40.340416 23.3552092 40.7339788 23.461854 41.1245276 23.5684988 41.5124926 23.6751436 41.8974436 23.7817884 42.2793804 23.8884331 42.6587337 23.9950779 43.0346422 24.1017227 43.4075365 24.2083675 43.776986 24.3150123 44.1429909 24.4216571 44.5059816 24.5283019 44.8650969 24.6349467 45.2207674 24.7415915 45.5725627 24.8482363 45.9209132 24.9548811 46.2649577 25.0615258 46.6055575 25.1681706 46.9418514 25.2748154 47.2742698 25.3814602 47.6023824 25.488105 47.926189 25.5947498 48.2461204 25.7013946 48.561315 25.8080394 48.8722039 25.9146842 49.1787868 26.021329 49.4806331 26.1279737 49.7777429 26.2346185 50.0701161 26.3412633 50.3577529 26.4479081 50.6406531 26.5545529 50.9188168 26.6611977 51.1918133 26.7678425 51.4596427 26.8744873 51.722305 26.9811321 51.9802307 27.0877769 52.2325588 27.1944217 52.4801503 27.3010664 52.7221441 27.4077112 52.9585402 27.514356 53.1897691 27.6210008 53.4154003 27.7276456 53.6354338 27.8342904 53.8503002 27.9409352 54.0591382 28.04758 54.2623785 28.1542248 54.4600211 28.2608696 54.6516354 28.3675144 54.837652 28.4741591 55.0180709 28.5808039 55.1924614 28.6874487 55.3608236 28.7940935 55.5231575 29.0073831 55.8297404 29.2206727 56.11221 29.4339623 56.3701357 29.6472518 56.6035177 29.8605414 56.8114946 30.073831 56.9944969 30.2871206 57.1525249 30.5004102 57.2847173 30.7136998 57.3915045 31.0336341 57.5030283 31.3535685 57.5568526 31.6735029 57.5525467 31.9934372 57.4905412 32.3133716 57.3699748 32.5266612 57.2575899 32.7399508 57.1197998 32.9532404 56.9566047 33.1665299 56.7680046 33.3798195 56.55443 33.5931091 56.3154503 33.8063987 56.0523575 34.0196883 55.7642901 34.2329779 55.4525401 34.3396226 55.2871921 34.4462674 55.1162463 34.5529122 54.9397028 34.659557 54.7567004 34.7662018 54.5681002 34.8728466 54.3739023 34.9794914 54.1736762 35.0861362 53.9678523 35.192781 53.7564307 35.2994258 53.5394114 35.4060705 53.3167943 35.5127153 53.0885795 35.6193601 52.8551976 35.7260049 52.616218 35.8326497 52.3720712 35.9392945 52.1223268 36.0459393 51.8674152 36.1525841 51.6077671 36.2592289 51.3425212 36.3658737 51.0721082 36.4725185 50.7969587 36.5791632 50.5170726 36.685808 50.2320195 36.7924528 49.9422298 36.8990976 49.6477035 37.0057424 49.3484407 37.1123872 49.0444415 37.219032 48.7361362 37.3256768 48.423525 37.4323216 48.1061773 37.5389664 47.7845236 37.6456112 47.4585641 37.7522559 47.1287291 37.8589007 46.7945882 37.9655455 46.4561414 38.0721903 46.1142499 38.1788351 45.7680524 38.2854799 45.41841 38.3921247 45.0648925 38.4987695 44.7074995 38.6054143 44.3466618 38.7120591 43.98281 38.8187039 43.6150828 38.9253486 43.2439108 39.0319934 42.8697247 39.1386382 42.4925244 39.245283 42.1118794 39.3519278 41.7286508 39.4585726 41.342408 39.5652174 40.9531511 39.6718622 40.5613106 39.778507 40.1668867 39.8851518 39.7698791 39.9917966 39.3702879 40.0984413 38.9685438 40.2050861 38.5642161 40.3117309 38.158166 40.4183757 37.7495324 40.5250205 37.3391764 40.6316653 36.927098 40.7383101 36.5128667 40.8449549 36.096913 40.9515997 35.6796675 41.0582445 35.2606996 41.1648893 34.8400093 41.271534 34.4184578 41.3781788 33.9951841 41.4848236 33.571049 41.5914684 33.1460528 41.6981132 32.7197648 41.804758 32.2926157 41.9114028 31.8646053 42.0180476 31.4361644 42.1246924 31.0068623 42.2313372 30.5775601 42.337982 30.1473968 42.4446267 29.7172335 42.5512715 29.2866396 42.6579163 28.8560457 42.7645611 28.4254517 42.8712059 27.9948578 42.9778507 27.5646944 43.0844955 27.1345311 43.1911403 26.705229 43.2977851 26.2759269 43.4044299 25.8474859 43.5110747 25.4194756 43.6177194 24.9923264 43.7243642 24.5660385 43.831009 24.1410422 43.9376538 23.7169073 44.0442986 23.2936334 44.1509434 22.8720819 44.2575882 22.4513917 44.364233 22.0324238 44.4708778 21.6151783 44.5775226 21.1992246 44.6841674 20.7849933 44.7908121 20.3729148 44.8974569 19.9625588 45.0041017 19.5539252 45.1107465 19.1478751 45.2173913 18.7435475 45.3240361 18.3418033 45.4306809 17.9422121 45.5373257 17.5452046 45.6439705 17.1507806 45.7506153 16.7589401 45.85726 16.3696832 45.9639048 15.9834404 46.0705496 15.6002119 46.1771944 15.2195669 46.2838392 14.8423665 46.390484 14.4681805 46.4971288 14.0970085 46.6037736 13.7292813 46.7104184 13.3654294 46.8170632 13.0045917 46.923708 12.6471988 47.0303527 12.2936812 47.1369975 11.9440389 47.2436423 11.5978414 47.3502871 11.2559498 47.4569319 10.917503 47.5635767 10.5833622 47.6702215 10.2535272 47.7768663 9.92756758 47.8835111 9.60591392 47.9901559 9.28856623 48.0968007 8.97595505 48.2034454 8.6676498 48.3100902 8.3636505 48.416735 8.06438772 48.5233798 7.76986148 48.6300246 7.48007178 48.7366694 7.1950186 48.8433142 6.91513255 48.949959 6.63998304 49.0566038 6.36957006 49.1632486 6.10432421 49.2698934 5.84467607 49.3765381 5.58976448 49.4831829 5.34002001 49.5898277 5.09587326 49.6964725 4.85689363 49.8031173 4.62351172 49.9097621 4.39529695 50.0164069 4.1726799 50.1230517 3.95566056 50.2296965 3.74423894 50.3363413 3.53841506 50.4429861 3.33818888 50.5496308 3.14399102 50.6562756 2.95539089 50.7629204 2.77238847 50.8695652 2.59584497 50.97621 2.42489918 51.0828548 2.25955112 51.1894996 2.10066197 51.4027892 1.800538 51.6160788 1.5249579 51.8293683 1.27392164 52.0426579 1.04785983 52.2559475 0.846772476 52.4692371 0.670659564 52.6825267 0.519951693 52.8958162 0.395079456 53.1091058 0.295612262 53.4290402 0.194422691 53.7489746 0.151363299 54.0689089 0.166434086 54.3888433 0.239635052 54.7087777 0.370966198 54.9220673 0.490240713 55.1353568 0.635350863 55.3486464 0.805866054 55.561936 1.00135569 55.7752256 1.22225037 55.9885152 1.4676889 56.2018048 1.73810188 56.4150943 2.03262812 56.6283839 2.35126762 56.7350287 2.51962985 56.8416735 2.69402039 56.9483183 2.87443924 57.0549631 3.0604558 57.1616079 3.2520701 57.2682527 3.44971271 57.3748975 3.65295304 57.4815422 3.86179109 57.588187 4.07665746 57.6948318 4.29669094 57.8014766 4.52232215 57.9081214 4.75355109 58.0147662 4.98994715 58.121411 5.23194093 58.2280558 5.47953243 58.3347006 5.73186047 58.4413454 5.98978623 58.5479902 6.25244852 58.6546349 6.52027793 58.7612797 6.79327448 58.8679245 7.07143815 58.9745693 7.35433835 59.0812141 7.64197509 59.1878589 7.93434836 59.2945037 8.23145816 59.4011485 8.5333045 59.5077933 8.83988737 59.6144381 9.15077618 59.7210829 9.46597093 59.8277276 9.78590222 59.9343724 10.1097089 60.0410172 10.4378214 60.147662 10.7702399 60.2543068 11.1065337 60.3609516 11.4471335 60.4675964 11.7911781 60.5742412 12.1395286 60.680886 12.4913238 60.7875308 12.8469944 60.8941756 13.2061097 61.0008203 13.5691004 61.1074651 13.9351052 61.2141099 14.3045548 61.3207547 14.6774491 61.4273995 15.0533576 61.5340443 15.4327109 61.6406891 15.8146477 61.7473339 16.1995986 61.8539787 16.5875638 61.9606235 16.9781124 62.0672683 17.3716753 62.173913 17.7673911 62.2805578 18.1656904 62.3872026 18.5665733 62.4938474 18.9696092 62.6004922 19.3752287 62.707137 19.7825706 62.8137818 20.1920654 62.9204266 20.6037132 63.0270714 21.0170833 63.1337162 21.4321759 63.240361 21.8489908 63.3470057 22.2670975 63.4536505 22.6869266 63.5602953 23.1080474 63.6669401 23.5308907 63.7735849 23.954595 63.8802297 24.3791606 63.9868745 24.8050181 64.0935193 25.2317367 64.2001641 25.6593164 64.3068089 26.0873267 64.4134537 26.5166289 64.5200984 26.945931 64.6267432 27.3756637 64.733388 27.805827 64.8400328 28.236421 64.9466776 28.6665843 65.0533224 29.0971782 65.1599672 29.5277721 65.266612 29.958366 65.3732568 30.3885294 65.4799016 30.8182621 65.5865463 31.2475643 65.6931911 31.6764357 65.7998359 32.1044462 65.9064807 32.5320259 66.0131255 32.9587445 66.1197703 33.3841713 66.2264151 33.8091675 66.3330599 34.2324412 66.4397047 34.6548539 66.5463495 35.0759747 66.6529943 35.4958039 66.759639 35.9139105 66.8662838 36.3302948 66.9729286 36.7453874 67.0795734 37.1583269 67.1862182 37.5695441 67.292863 37.979039 67.3995078 38.3859502 67.5061526 38.7911391 67.6127974 39.194175 67.7194422 39.5946273 67.826087 39.9924961 67.9327317 40.3882119 68.0393765 40.7813442 68.1460213 41.1714623 68.2526661 41.5589968 68.3593109 41.9439478 68.4659557 42.325454 68.5726005 42.7043766 68.6792453 43.0798545 68.7858901 43.4523182 68.8925349 43.8213373 68.9991797 44.1873421 69.1058244 44.5494715 69.2124692 44.9081563 69.319114 45.2633963 69.4257588 45.6147609 69.5324036 45.9626808 69.6390484 46.3062948 69.7456932 46.6464639 69.852338 46.9823272 69.9589828 47.3143151 70.0656276 47.641997 70.1722724 47.9653731 70.2789171 48.2844432 70.3855619 48.5992073 70.4922067 48.9096655 70.5988515 49.2153872 70.7054963 49.516803 70.8121411 49.8134822 70.9187859 50.1049943 71.0254307 50.3922004 71.1320755 50.6746701 71.2387203 50.9519725 71.3453651 51.2241079 71.4520098 51.4915067 71.5586546 51.7537384 71.6652994 52.0112336 71.7719442 52.263131 71.878589 52.5094307 71.9852338 52.7509939 72.0918786 52.9869594 72.1985234 53.2173271 72.3051682 53.4425277 72.411813 53.6617 72.5184578 53.8757052 72.6251025 54.0841126 72.7317473 54.2864918 72.8383921 54.4837038 72.9450369 54.674457 73.0516817 54.8600429 73.1583265 55.0391699 73.2649713 55.2131299 73.3716161 55.380631 73.4782609 55.5421036 73.6915505 55.8473947 73.90484 56.1285726 74.1181296 56.384776 74.3314192 56.6168661 74.5447088 56.8235512 74.7579984 57.0048312 74.9712879 57.1611368 75.1845775 57.2916067 75.3978671 57.3971023 75.7178015 57.5064732 76.0377358 57.5581444 76.3576702 57.5512549 76.6776046 57.4866658 76.997539 57.3639465 77.2108285 57.2502698 77.4241181 57.1107573 77.6374077 56.9458398 77.8506973 56.7559479 78.0639869 56.540651 78.2772765 56.3003796 78.490566 56.0355643 78.7038556 55.7462052 78.9171452 55.4327328 79.02379 55.2669542 79.1304348 55.0951472 79.2370796 54.9177424 79.3437244 54.7343095 79.4503692 54.5448482 79.5570139 54.3497891 79.6636587 54.1491323 79.7703035 53.9428779 79.8769483 53.7305951 79.9835931 53.5127145 80.0902379 53.2896669 80.1968827 53.0610215 80.3035275 52.8267784 80.4101723 52.5869376 80.5168171 52.3419297 80.6234619 52.0917546 80.7301066 51.8364124 80.8367514 51.5759031 80.9433962 51.3097961 81.050041 51.0393831 81.1566858 50.7633723 81.2633306 50.4826252 81.3699754 50.1971414 81.4766202 49.9069211 81.583265 49.6115337 81.6899098 49.3118403 81.7965546 49.0074104 81.9031993 48.6986745 82.0098441 48.3852021 82.1164889 48.0674239 82.2231337 47.7453396 82.3297785 47.4189494 82.4364233 47.0882533 82.5430681 46.7536818 82.6497129 46.415235 82.7563577 46.0724822 82.8630025 45.7258541 82.9696473 45.3757813 83.076292 45.0218331 83.1829368 44.6640095 83.2895816 44.3031718 83.3962264 43.9384588 83.5028712 43.570301 83.609516 43.1986985 83.7161608 42.8245123 83.8228056 42.4464508 83.9294504 42.0658059 84.0360952 41.6821467 84.14274 41.2954733 84.2493847 40.9057858 84.3560295 40.5139454 84.4626743 40.1190907 84.5693191 39.7216525 84.6759639 39.3220614 84.7826087 38.9198867 84.8892535 38.515559 84.9958983 38.1086478 85.1025431 37.7000141 85.2091879 37.2896581 85.3158326 36.8771491"></polyline>
                                            </g>
                                        </g>
                                    </g>
                                </g>
                            </g>
                        </g>
                        <g id="logoBlack-Clipped">
                            <mask id="mask-4" fill="white">
                                <use xlink:href="#path-3"></use>
                            </mask>
                            <g id="path-1"></g>
                        </g>
                    </g>
                </g>
            </g>
        </g>
    </g>
</svg>