<svg xmlns="http://www.w3.org/2000/svg" viewBox="1834.393 799.685 30.392 34.643">
  <defs>
    <style>
      .cls-1 {
        fill: #fff;
      }

      .cls-2 {
        fill: none;
        stroke: #fff;
        stroke-miterlimit: 10;
        stroke-width: 1.984px;
      }
    </style>
  </defs>
  <g id="Group_388" data-name="Group 388" transform="translate(1834.393 799.685)">
    <g id="Group_387" data-name="Group 387">
      <path id="Path_246" data-name="Path 246" class="cls-1" d="M1426.657,1776.134a.183.183,0,0,1-.122-.031.5.5,0,0,1-.365-.609,15.69,15.69,0,0,0,.518-3.959c0-8.192-6.365-14.8-14.191-14.8s-14.191,6.669-14.191,14.8a15.32,15.32,0,0,0,.4,3.533.5.5,0,1,1-.975.244,17.511,17.511,0,0,1-.426-3.776c0-8.74,6.821-15.836,15.2-15.836,8.405,0,15.2,7.126,15.2,15.836a16.471,16.471,0,0,1-.548,4.233A.521.521,0,0,1,1426.657,1776.134Z" transform="translate(-1397.3 -1755.7)"/>
      <path id="Path_247" data-name="Path 247" class="cls-1" d="M1403.838,1804.435a4.748,4.748,0,0,0,0,9.441Zm.518,10.476a5.756,5.756,0,0,1,0-11.511.513.513,0,0,1,.518.518v10.506A.529.529,0,0,1,1404.356,1814.911Z" transform="translate(-1398.204 -1788.874)"/>
      <path id="Path_248" data-name="Path 248" class="cls-1" d="M1475.735,1804.366v9.44a4.748,4.748,0,0,0,0-9.44Zm-.518,10.476a.513.513,0,0,1-.518-.518v-10.506a.513.513,0,0,1,.518-.518,5.771,5.771,0,0,1,0,11.542Z" transform="translate(-1451.129 -1788.804)"/>
    </g>
    <ellipse id="Ellipse_68" data-name="Ellipse 68" class="cls-2" cx="3.198" cy="1.644" rx="3.198" ry="1.644" transform="translate(13.46 30.362)"/>
    <path id="Path_249" data-name="Path 249" class="cls-2" d="M1469.482,1837.8v2.314a4.539,4.539,0,0,1-4.812,4.659H1462.6" transform="translate(-1442.714 -1812.798)"/>
  </g>
</svg>
