<svg xmlns="http://www.w3.org/2000/svg" xmlns:xlink="http://www.w3.org/1999/xlink" viewBox="-19435 15241 75 79">
  <defs>
    <style>
      .cls-1 {
        clip-path: url(#clip-symbol_1);
      }

      .cls-2 {
        fill: #fff;
      }
    </style>
    <clipPath id="clip-symbol_1">
      <rect x="-19435" y="15241" width="75" height="79"/>
    </clipPath>
  </defs>
  <g id="symbol_1" data-name="symbol – 1" class="cls-1">
    <rect class="cls-2" x="-19435" y="15241" width="75" height="79"/>
    <g id="Group_3960" data-name="Group 3960" transform="translate(-19425 15253)">
      <path id="Path_3177" data-name="Path 3177" d="M193.064,15.4c-.165-1.289-.4-2.544-.595-3.833H192.4a19.239,19.239,0,0,0-1.057-3.3c-.231-.529-.463-1.024-.727-1.52a17.82,17.82,0,0,0-1.09-1.652A9.368,9.368,0,0,0,188.7,4.3a8.242,8.242,0,0,0-1.652-1.157,21.146,21.146,0,0,0-5.419-2.082,24.71,24.71,0,0,0-3.8-.661C176.344.231,174.89.1,173.4.033a42.336,42.336,0,0,0-5.023.1,47.761,47.761,0,0,0-6.477.925q-1.289.3-2.478.694a30.113,30.113,0,0,0-3.007,1.223,20.558,20.558,0,0,0-1.95,1.19c-.529.363-1.024.727-1.52,1.123-.463.4-.925.793-1.388,1.223-.595.562-1.157,1.157-1.718,1.751-.33.33-.628.694-.958,1.057a12.434,12.434,0,0,0-.826,1.024c-.33.4-.661.793-.958,1.19-.363.463-.694.958-1.024,1.454-.363.5-.727,1.024-1.057,1.553-.463.76-.925,1.52-1.355,2.28-.3.5-.595,1.024-.859,1.553-.5.991-.958,2.016-1.421,3.007a29.928,29.928,0,0,0-1.487,4.064,25.4,25.4,0,0,0-.826,4.131s-1.223,8.922,7.005,17.15c8.691,8.691,17.91,7.732,17.91,7.732a9.1,9.1,0,0,0,1.619-.264c1.024-.231,2.049-.463,3.073-.76.892-.264,1.751-.595,2.61-.925.628-.264,1.289-.529,1.917-.793.529-.231,1.355-.628,1.85-.892.628-.3,1.223-.628,1.817-.958.5-.264.958-.562,1.454-.826.33-.2.661-.43.991-.628a9.572,9.572,0,0,0,.958-.628c.562-.4,1.09-.793,1.652-1.19.363-.264.727-.529,1.09-.826.628-.5,1.223-1.024,1.817-1.553.76-.727,1.52-1.421,2.247-2.214a22.315,22.315,0,0,0,1.553-1.95,15.81,15.81,0,0,0,1.256-2.016,21.473,21.473,0,0,0,1.718-4.461c.33-1.157.595-2.346.826-3.5a38.261,38.261,0,0,0,.595-3.9c.132-1.322.231-2.677.264-4.031.033-1.322,0-2.677-.033-4.031A19.028,19.028,0,0,0,193.064,15.4Zm-22.04,26.964A16.425,16.425,0,1,1,183.349,22.7,16.42,16.42,0,0,1,171.024,42.362Z" transform="translate(-139.006 0)"/>
    </g>
  </g>
</svg>
