<svg xmlns="http://www.w3.org/2000/svg" xmlns:xlink="http://www.w3.org/1999/xlink" viewBox="0 0 381.07 147.67"><defs><style>.a,.b{fill:none;}.a{clip-rule:evenodd;}.c{clip-path:url(#a);}.d{clip-path:url(#b);}.e{fill:#ed3324;fill-rule:evenodd;}.f{clip-path:url(#c);}</style><clipPath id="a"><path class="a" d="M444.7,240.76a34,34,0,1,1,40.74,25.6A34,34,0,0,1,444.7,240.76Z"/></clipPath><clipPath id="b"><rect class="b" x="428.03" y="193.8" width="91.47" height="90.48" transform="translate(-41.35 111.56) rotate(-12.87)"/></clipPath><clipPath id="c"><path class="a" d="M443.83,80.49a34,34,0,1,1,40.74,25.6A34,34,0,0,1,443.83,80.49Z"/></clipPath></defs><title>Grover-Logo-220916</title><g class="c"><g class="d"><path class="e" d="M400.27,46.35A34,34,0,1,1,441,72,34,34,0,0,1,400.27,46.35Zm67.28-62,22.21,97.21-93.3,21.32L374.25,5.72Z"/></g></g><path d="M132.74,50.27c-.34-2.65-.81-5.28-1.23-7.92l-.1,0a43.3,43.3,0,0,0-2.17-6.86,28.79,28.79,0,0,0-1.52-3.12,34.18,34.18,0,0,0-2.26-3.45,15.07,15.07,0,0,0-1.74-1.64,17.77,17.77,0,0,0-3.41-2.43A43,43,0,0,0,109,20.59a57.86,57.86,0,0,0-7.86-1.39c-3.06-.34-6.13-.6-9.2-.75a85.45,85.45,0,0,0-10.43.2,96.57,96.57,0,0,0-13.43,1.91A44,44,0,0,0,63,22a57.91,57.91,0,0,0-6.23,2.53,34.68,34.68,0,0,0-4,2.45c-1.09.73-2.16,1.51-3.18,2.33S47.6,31,46.68,31.89c-1.22,1.17-2.41,2.39-3.59,3.61-.68.7-1.32,1.44-2,2.18s-1.15,1.39-1.72,2.1-1.35,1.64-2,2.49-1.44,2-2.15,3-1.48,2.11-2.18,3.2c-1,1.55-1.9,3.16-2.84,4.75-.62,1.06-1.24,2.12-1.79,3.22-1,2.06-2,4.16-3,6.26a63.39,63.39,0,0,0-3.07,8.46,48.58,48.58,0,0,0-1.69,8.58s-2.5,18.47,14.54,35.51c18,18,37.13,16,37.13,16a27.71,27.71,0,0,0,3.39-.57c2.13-.47,4.25-1,6.35-1.6,1.83-.54,3.63-1.2,5.41-1.89,1.33-.51,2.65-1.07,4-1.65,1.08-.47,2.81-1.3,3.85-1.84,1.27-.65,2.53-1.31,3.78-2,1-.56,2-1.13,3-1.72.7-.41,1.38-.86,2.07-1.29s1.36-.84,2-1.3c1.16-.8,2.29-1.66,3.44-2.48.76-.55,1.53-1.1,2.26-1.69,1.28-1,2.55-2.11,3.75-3.23,1.58-1.48,3.17-3,4.63-4.56a40.21,40.21,0,0,0,3.19-4.05,37.94,37.94,0,0,0,2.59-4.15A46.43,46.43,0,0,0,129.68,88c.67-2.4,1.25-4.84,1.72-7.29.51-2.67.95-5.35,1.25-8.05s.49-5.56.58-8.35,0-5.55-.06-8.33C133.12,54.07,133,52.16,132.74,50.27ZM87,106.12a34,34,0,1,1,25.57-40.75A34,34,0,0,1,87,106.12Z"/><polygon points="289.7 58.45 277.1 86.43 266.06 58.45 256.85 58.46 272.91 97.87 281.17 97.87 298.94 58.45 289.7 58.45"/><path d="M348.23,61.49V58.43l-8.22,0V97.87h8.25l0-23.21c0-6.35,3.79-7.42,8.48-7.59l3.41-7.75C354.82,59.32,351,60.13,348.23,61.49Z"/><path d="M209.07,61.49V58.43l-8.22,0V97.87h8.25l0-23.21c0-6.35,3.79-7.42,8.48-7.59L221,59.32C215.66,59.32,211.85,60.13,209.07,61.49Z"/><path d="M316.91,58.4c-11.35,0-20.6,8.88-20.67,19.93s8.23,19.22,19.12,19.53c7.5.22,13.7-4.14,17.43-9.83l-7.34-3.57c-2.37,3-5,5-9.12,5a11.57,11.57,0,0,1-11.6-8.73l30.76-.23a16.16,16.16,0,0,0,.13-2.06C335.66,67,328.17,58.44,316.91,58.4ZM305.53,73.23c2-4.18,5.65-6.41,10.8-6.41a11.45,11.45,0,0,1,9.87,6.41Z"/><path d="M239.46,58.38A20.06,20.06,0,0,0,219.2,78.17a19.16,19.16,0,0,0,18.74,19.69,20.16,20.16,0,0,0,20.63-19.58C258.8,66.9,250.5,58.43,239.46,58.38Zm-.57,31.06a11.32,11.32,0,1,1,11.39-11.32A11.36,11.36,0,0,1,238.89,89.45Z"/><path d="M175.42,73.29l-3.14,6.86,14.51.12A16.83,16.83,0,1,1,170.88,57.8a16.62,16.62,0,0,1,12.33,5.48,17.08,17.08,0,0,1,1.56,2l2-1,5.94-2.94a25.48,25.48,0,0,0-21.84-12.45,26,26,0,1,0,25.58,26c0-.49,0-1.48-.05-1.55Z"/></svg>