<?xml version="1.0" encoding="UTF-8"?>
<svg width="290px" height="27px" viewBox="0 0 290 27" version="1.1" xmlns="http://www.w3.org/2000/svg" xmlns:xlink="http://www.w3.org/1999/xlink">
    <!-- Generator: Sketch 48.1 (47250) - http://www.bohemiancoding.com/sketch -->
    <title>WAVEPUZZLE</title>
    <desc>Created with Sketch.</desc>
    <defs></defs>
    <g id="Landing-page" stroke="none" stroke-width="1" fill="none" fill-rule="evenodd" transform="translate(-573.000000, -278.000000)">
        <g id="Promo" fill="#FFFFFF">
            <g id="promoText" transform="translate(573.000000, 278.000000)">
                <g id="Group-2">
                    <path d="M6.43945312,19.7773437 L7.14257812,17.9492187 L8.79492188,13.8710937 L14.6835937,0.30078125 L20.5898438,0.30078125 L20.5898438,14.2226562 C20.5898438,16.0507904 20.4375015,17.9023344 20.1328125,19.7773437 C20.2500006,19.4492171 21.0292897,17.4218936 22.4707031,13.6953125 L27.796875,0.30078125 L34.5996094,0.30078125 L23.4375,26 L15.3339844,26 L15.3339844,15.1015625 C15.3339844,13.2851472 15.4101555,11.3867287 15.5625,9.40625 C15.1757793,10.9648515 14.48438,13.009753 13.4882812,15.5410156 L9.04101562,26 L1.41210938,26 L0.55078125,0.30078125 L7.0546875,0.30078125 L6.87890625,13.1855469 C6.8085934,16.3144688 6.66211049,18.5117124 6.43945312,19.7773437 Z M52.6816406,21.1835937 L44.8066406,21.1835937 L42.609375,26 L35.4726562,26 L48.5507812,0.30078125 L57.3925781,0.30078125 L59.5546875,26 L52.8574219,26 L52.6816406,21.1835937 Z M47.3203125,15.6992188 L52.4707031,15.6992188 L52.171875,8.24609375 L52.1367188,6.734375 C52.1367188,5.85546436 52.160156,5.08789391 52.2070312,4.43164062 C51.9257798,5.43945816 51.5683615,6.41210469 51.1347656,7.34960938 L47.3203125,15.6992188 Z M85.5820312,0.30078125 L92.859375,0.30078125 L80.1152344,26 L72.4511719,26 L70.6230469,0.30078125 L77.3378906,0.30078125 L77.8125,14.3808594 L77.8125,15.2773437 C77.8125,16.9648522 77.7187509,18.4648372 77.53125,19.7773437 L77.671875,19.7773437 C77.8359383,19.02734 78.0966779,18.1044977 78.4541016,17.0087891 C78.8115252,15.9130805 79.1367173,15.0605499 79.4296875,14.4511719 L85.5820312,0.30078125 Z M113.542969,26 L98.2851562,26 L103.716797,0.30078125 L118.974609,0.30078125 L117.832031,5.87304687 L109.447266,5.87304687 L108.621094,9.91601562 L116.425781,9.91601562 L115.160156,15.4882812 L107.355469,15.4882812 L106.353516,20.3398437 L114.738281,20.3398437 L113.542969,26 Z M147.427734,8 C147.427734,10.9531398 146.422862,13.2704994 144.413086,14.9521484 C142.40331,16.6337975 139.652361,17.4746094 136.160156,17.4746094 L134.648438,17.4746094 L132.890625,26 L126.017578,26 L131.449219,0.30078125 L138.005859,0.30078125 C141.041031,0.30078125 143.370109,0.965813662 144.993164,2.29589844 C146.616219,3.62598321 147.427734,5.52733139 147.427734,8 Z M135.878906,11.8496094 L136.986328,11.8496094 C138.05274,11.8496094 138.914059,11.5068394 139.570312,10.8212891 C140.226566,10.1357388 140.554688,9.26563027 140.554688,8.2109375 C140.554688,7.51952779 140.343752,6.96289273 139.921875,6.54101562 C139.499998,6.11913852 138.919926,5.90820312 138.181641,5.90820312 L137.144531,5.90820312 L135.878906,11.8496094 Z M180.855469,0.30078125 L177.357422,16.6835938 C176.666012,19.976579 175.347666,22.4111249 173.402344,23.9873047 C171.457022,25.5634844 168.81447,26.3515625 165.474609,26.3515625 C163.904289,26.3515625 162.518561,26.0293001 161.317383,25.3847656 C160.116205,24.7402312 159.190433,23.8378964 158.540039,22.6777344 C157.889645,21.5175723 157.564453,20.2226634 157.564453,18.7929688 C157.564453,18.042965 157.634765,17.2871132 157.775391,16.5253906 L161.273438,0.30078125 L168.146484,0.30078125 L164.71875,16.3496094 C164.554687,17.1464884 164.472656,17.8203097 164.472656,18.3710937 C164.472656,19.8593824 165.181634,20.6035156 166.599609,20.6035156 C167.701177,20.6035156 168.565427,20.2255897 169.192383,19.4697266 C169.819339,18.7138634 170.296873,17.5566484 170.625,15.9980469 L173.982422,0.30078125 L180.855469,0.30078125 Z M204.667969,26 L186.492188,26 L187.318359,21.7460937 L199.447266,5.90820312 L191.027344,5.90820312 L192.205078,0.30078125 L209.537109,0.30078125 L208.623047,4.60742187 L196.318359,20.3925781 L205.863281,20.3925781 L204.667969,26 Z M231.574219,26 L213.398438,26 L214.224609,21.7460937 L226.353516,5.90820312 L217.933594,5.90820312 L219.111328,0.30078125 L236.443359,0.30078125 L235.529297,4.60742187 L223.224609,20.3925781 L232.769531,20.3925781 L231.574219,26 Z M242.501953,26 L247.933594,0.30078125 L254.806641,0.30078125 L250.570312,20.3925781 L258.955078,20.3925781 L257.759766,26 L242.501953,26 Z M284.226562,26 L268.96875,26 L274.400391,0.30078125 L289.658203,0.30078125 L288.515625,5.87304687 L280.130859,5.87304687 L279.304688,9.91601562 L287.109375,9.91601562 L285.84375,15.4882812 L278.039062,15.4882812 L277.037109,20.3398437 L285.421875,20.3398437 L284.226562,26 Z" id="WAVEPUZZLE"></path>
                </g>
            </g>
        </g>
    </g>
</svg>