<?xml version="1.0" encoding="UTF-8"?>
<svg width="290px" height="59px" viewBox="0 0 290 59" version="1.1" xmlns="http://www.w3.org/2000/svg" xmlns:xlink="http://www.w3.org/1999/xlink">
    <!-- Generator: Sketch 48.1 (47250) - http://www.bohemiancoding.com/sketch -->
    <title>Group 2</title>
    <desc>Created with Sketch.</desc>
    <defs></defs>
    <g id="Landing-page" stroke="none" stroke-width="1" fill="none" fill-rule="evenodd" transform="translate(-573.000000, -278.000000)">
        <g id="Promo" fill="#FFFFFF">
            <g id="promoText" transform="translate(420.000000, 263.000000)">
                <g id="Group-2" transform="translate(153.000000, 15.000000)">
                    <path d="M6.43945312,19.7773437 L7.14257812,17.9492187 L8.79492188,13.8710937 L14.6835937,0.30078125 L20.5898438,0.30078125 L20.5898438,14.2226562 C20.5898438,16.0507904 20.4375015,17.9023344 20.1328125,19.7773437 C20.2500006,19.4492171 21.0292897,17.4218936 22.4707031,13.6953125 L27.796875,0.30078125 L34.5996094,0.30078125 L23.4375,26 L15.3339844,26 L15.3339844,15.1015625 C15.3339844,13.2851472 15.4101555,11.3867287 15.5625,9.40625 C15.1757793,10.9648515 14.48438,13.009753 13.4882812,15.5410156 L9.04101562,26 L1.41210938,26 L0.55078125,0.30078125 L7.0546875,0.30078125 L6.87890625,13.1855469 C6.8085934,16.3144688 6.66211049,18.5117124 6.43945312,19.7773437 Z M52.6816406,21.1835937 L44.8066406,21.1835937 L42.609375,26 L35.4726562,26 L48.5507812,0.30078125 L57.3925781,0.30078125 L59.5546875,26 L52.8574219,26 L52.6816406,21.1835937 Z M47.3203125,15.6992188 L52.4707031,15.6992188 L52.171875,8.24609375 L52.1367188,6.734375 C52.1367188,5.85546436 52.160156,5.08789391 52.2070312,4.43164062 C51.9257798,5.43945816 51.5683615,6.41210469 51.1347656,7.34960938 L47.3203125,15.6992188 Z M85.5820312,0.30078125 L92.859375,0.30078125 L80.1152344,26 L72.4511719,26 L70.6230469,0.30078125 L77.3378906,0.30078125 L77.8125,14.3808594 L77.8125,15.2773437 C77.8125,16.9648522 77.7187509,18.4648372 77.53125,19.7773437 L77.671875,19.7773437 C77.8359383,19.02734 78.0966779,18.1044977 78.4541016,17.0087891 C78.8115252,15.9130805 79.1367173,15.0605499 79.4296875,14.4511719 L85.5820312,0.30078125 Z M113.542969,26 L98.2851562,26 L103.716797,0.30078125 L118.974609,0.30078125 L117.832031,5.87304687 L109.447266,5.87304687 L108.621094,9.91601562 L116.425781,9.91601562 L115.160156,15.4882812 L107.355469,15.4882812 L106.353516,20.3398437 L114.738281,20.3398437 L113.542969,26 Z M147.427734,8 C147.427734,10.9531398 146.422862,13.2704994 144.413086,14.9521484 C142.40331,16.6337975 139.652361,17.4746094 136.160156,17.4746094 L134.648438,17.4746094 L132.890625,26 L126.017578,26 L131.449219,0.30078125 L138.005859,0.30078125 C141.041031,0.30078125 143.370109,0.965813662 144.993164,2.29589844 C146.616219,3.62598321 147.427734,5.52733139 147.427734,8 Z M135.878906,11.8496094 L136.986328,11.8496094 C138.05274,11.8496094 138.914059,11.5068394 139.570312,10.8212891 C140.226566,10.1357388 140.554688,9.26563027 140.554688,8.2109375 C140.554688,7.51952779 140.343752,6.96289273 139.921875,6.54101562 C139.499998,6.11913852 138.919926,5.90820312 138.181641,5.90820312 L137.144531,5.90820312 L135.878906,11.8496094 Z M180.855469,0.30078125 L177.357422,16.6835938 C176.666012,19.976579 175.347666,22.4111249 173.402344,23.9873047 C171.457022,25.5634844 168.81447,26.3515625 165.474609,26.3515625 C163.904289,26.3515625 162.518561,26.0293001 161.317383,25.3847656 C160.116205,24.7402312 159.190433,23.8378964 158.540039,22.6777344 C157.889645,21.5175723 157.564453,20.2226634 157.564453,18.7929688 C157.564453,18.042965 157.634765,17.2871132 157.775391,16.5253906 L161.273438,0.30078125 L168.146484,0.30078125 L164.71875,16.3496094 C164.554687,17.1464884 164.472656,17.8203097 164.472656,18.3710937 C164.472656,19.8593824 165.181634,20.6035156 166.599609,20.6035156 C167.701177,20.6035156 168.565427,20.2255897 169.192383,19.4697266 C169.819339,18.7138634 170.296873,17.5566484 170.625,15.9980469 L173.982422,0.30078125 L180.855469,0.30078125 Z M204.667969,26 L186.492188,26 L187.318359,21.7460937 L199.447266,5.90820312 L191.027344,5.90820312 L192.205078,0.30078125 L209.537109,0.30078125 L208.623047,4.60742187 L196.318359,20.3925781 L205.863281,20.3925781 L204.667969,26 Z M231.574219,26 L213.398438,26 L214.224609,21.7460937 L226.353516,5.90820312 L217.933594,5.90820312 L219.111328,0.30078125 L236.443359,0.30078125 L235.529297,4.60742187 L223.224609,20.3925781 L232.769531,20.3925781 L231.574219,26 Z M242.501953,26 L247.933594,0.30078125 L254.806641,0.30078125 L250.570312,20.3925781 L258.955078,20.3925781 L257.759766,26 L242.501953,26 Z M284.226562,26 L268.96875,26 L274.400391,0.30078125 L289.658203,0.30078125 L288.515625,5.87304687 L280.130859,5.87304687 L279.304688,9.91601562 L287.109375,9.91601562 L285.84375,15.4882812 L278.039062,15.4882812 L277.037109,20.3398437 L285.421875,20.3398437 L284.226562,26 Z" id="WAVEPUZZLE"></path>
                    <path d="M72.6884766,51.5126953 C72.6884766,52.3681683 72.3632845,53.0258766 71.7128906,53.4858398 C71.0624967,53.9458031 70.1396544,54.1757812 68.9443359,54.1757812 C67.6669858,54.1757812 66.6533241,53.9794942 65.9033203,53.5869141 L65.9033203,52.6464844 C66.8642626,53.1269555 67.8779244,53.3671875 68.9443359,53.3671875 C69.8877,53.3671875 70.6040015,53.2104508 71.0932617,52.8969727 C71.582522,52.5834945 71.8271484,52.1660182 71.8271484,51.6445312 C71.8271484,51.1640601 71.6323262,50.7597673 71.2426758,50.4316406 C70.8530254,50.103514 70.2128951,49.7812516 69.3222656,49.4648438 C68.3671827,49.1191389 67.696291,48.8217786 67.3095703,48.5727539 C66.9228496,48.3237292 66.6313486,48.042482 66.4350586,47.7290039 C66.2387685,47.4155258 66.140625,47.0332054 66.140625,46.5820312 C66.140625,45.8671839 66.440915,45.3017599 67.0415039,44.8857422 C67.6420928,44.4697245 68.4814399,44.2617188 69.5595703,44.2617188 C70.5908255,44.2617188 71.5693313,44.4550762 72.4951172,44.8417969 L72.1699219,45.6328125 C71.2324172,45.2460918 70.3623087,45.0527344 69.5595703,45.0527344 C68.7802695,45.0527344 68.1621117,45.1816393 67.7050781,45.4394531 C67.2480446,45.6972669 67.0195312,46.0546852 67.0195312,46.5117188 C67.0195312,47.0097681 67.1967756,47.4082016 67.5512695,47.7070312 C67.9057635,48.0058609 68.5986277,48.3398419 69.6298828,48.7089844 C70.4912152,49.0195328 71.1181621,49.2993152 71.5107422,49.5483398 C71.9033223,49.7973645 72.1977529,50.0800765 72.394043,50.3964844 C72.590333,50.7128922 72.6884766,51.0849588 72.6884766,51.5126953 Z M83.0507812,49.2099609 C83.0507812,50.7685625 82.6728553,51.9858355 81.9169922,52.8618164 C81.161129,53.7377973 80.1181707,54.1757812 78.7880859,54.1757812 C77.9501911,54.1757812 77.2119173,53.9736348 76.5732422,53.5693359 C75.9345671,53.165037 75.4453142,52.5849647 75.1054688,51.8291016 C74.7656233,51.0732384 74.5957031,50.2002003 74.5957031,49.2099609 C74.5957031,47.6513594 74.973629,46.4370161 75.7294922,45.5668945 C76.4853553,44.696773 77.5224543,44.2617188 78.8408203,44.2617188 C80.1533269,44.2617188 81.1831017,44.7026323 81.9301758,45.5844727 C82.6772498,46.466313 83.0507812,47.674797 83.0507812,49.2099609 Z M75.5097656,49.2099609 C75.5097656,50.5224675 75.798337,51.546383 76.3754883,52.2817383 C76.9526396,53.0170935 77.7685494,53.3847656 78.8232422,53.3847656 C79.877935,53.3847656 80.6938448,53.0170935 81.2709961,52.2817383 C81.8481474,51.546383 82.1367188,50.5224675 82.1367188,49.2099609 C82.1367188,47.891595 81.8452178,46.8691443 81.262207,46.1425781 C80.6791963,45.416012 79.8603568,45.0527344 78.8056641,45.0527344 C77.7509713,45.0527344 76.9379911,45.4145472 76.3666992,46.1381836 C75.7954073,46.86182 75.5097656,47.8857356 75.5097656,49.2099609 Z M86.4521484,44.4462891 L86.4521484,50.6337891 C86.4521484,51.5947314 86.6542949,52.2934548 87.0585938,52.7299805 C87.4628926,53.1665061 88.0898395,53.3847656 88.9394531,53.3847656 C90.0761776,53.3847656 90.912595,53.0976591 91.4487305,52.5234375 C91.984866,51.9492159 92.2529297,51.0146549 92.2529297,49.7197266 L92.2529297,44.4462891 L93.1142578,44.4462891 L93.1142578,54 L92.3759766,54 L92.2177734,52.6816406 L92.1650391,52.6816406 C91.5439422,53.6777394 90.4394611,54.1757812 88.8515625,54.1757812 C86.6777235,54.1757812 85.5908203,53.0127069 85.5908203,50.6865234 L85.5908203,44.4462891 L86.4521484,44.4462891 Z M102.975586,54 L102.975586,47.8037109 C102.975586,46.8427686 102.77344,46.1440452 102.369141,45.7075195 C101.964842,45.2709939 101.337895,45.0527344 100.488281,45.0527344 C99.3456974,45.0527344 98.50928,45.3413057 97.9790039,45.918457 C97.4487278,46.4956084 97.1835938,47.4316342 97.1835938,48.7265625 L97.1835938,54 L96.3134766,54 L96.3134766,44.4462891 L97.0517578,44.4462891 L97.21875,45.7558594 L97.2714844,45.7558594 C97.8925812,44.7597606 98.9970624,44.2617188 100.584961,44.2617188 C102.752941,44.2617188 103.836914,45.4247931 103.836914,47.7509766 L103.836914,54 L102.975586,54 Z M110.428711,44.2617188 C111.120121,44.2617188 111.717771,44.3876941 112.22168,44.6396484 C112.725588,44.8916028 113.176756,45.3222626 113.575195,45.9316406 L113.62793,45.9316406 C113.592773,45.1933557 113.575195,44.4697301 113.575195,43.7607422 L113.575195,40.3242188 L114.436523,40.3242188 L114.436523,54 L113.865234,54 L113.645508,52.5410156 L113.575195,52.5410156 C112.848629,53.6308648 111.805671,54.1757812 110.446289,54.1757812 C109.127923,54.1757812 108.120121,53.7656291 107.422852,52.9453125 C106.725582,52.1249959 106.376953,50.9296954 106.376953,49.359375 C106.376953,47.707023 106.722653,46.4443403 107.414062,45.5712891 C108.105472,44.6982378 109.110345,44.2617188 110.428711,44.2617188 Z M110.428711,45.0527344 C109.385737,45.0527344 108.602053,45.4189417 108.077637,46.1513672 C107.55322,46.8837927 107.291016,47.9472587 107.291016,49.3417969 C107.291016,52.0488417 108.342763,53.4023438 110.446289,53.4023438 C111.524419,53.4023438 112.315427,53.0888703 112.819336,52.4619141 C113.323245,51.8349578 113.575195,50.8007885 113.575195,49.359375 L113.575195,49.2099609 C113.575195,47.7333911 113.327639,46.67139 112.83252,46.0239258 C112.3374,45.3764616 111.536138,45.0527344 110.428711,45.0527344 Z M125.818359,44.2617188 C126.509769,44.2617188 127.107419,44.3876941 127.611328,44.6396484 C128.115237,44.8916028 128.566404,45.3222626 128.964844,45.9316406 L129.017578,45.9316406 C128.982422,45.1933557 128.964844,44.4697301 128.964844,43.7607422 L128.964844,40.3242188 L129.826172,40.3242188 L129.826172,54 L129.254883,54 L129.035156,52.5410156 L128.964844,52.5410156 C128.238278,53.6308648 127.195319,54.1757812 125.835938,54.1757812 C124.517572,54.1757812 123.509769,53.7656291 122.8125,52.9453125 C122.115231,52.1249959 121.766602,50.9296954 121.766602,49.359375 C121.766602,47.707023 122.112301,46.4443403 122.803711,45.5712891 C123.495121,44.6982378 124.499993,44.2617188 125.818359,44.2617188 Z M125.818359,45.0527344 C124.775385,45.0527344 123.991702,45.4189417 123.467285,46.1513672 C122.942868,46.8837927 122.680664,47.9472587 122.680664,49.3417969 C122.680664,52.0488417 123.732411,53.4023438 125.835938,53.4023438 C126.914068,53.4023438 127.705076,53.0888703 128.208984,52.4619141 C128.712893,51.8349578 128.964844,50.8007885 128.964844,49.359375 L128.964844,49.2099609 C128.964844,47.7333911 128.717288,46.67139 128.222168,46.0239258 C127.727048,45.3764616 126.925787,45.0527344 125.818359,45.0527344 Z M136.892578,54.1757812 C135.503899,54.1757812 134.421391,53.7480512 133.64502,52.8925781 C132.868648,52.0371051 132.480469,50.8388749 132.480469,49.2978516 C132.480469,47.7744064 132.855465,46.5542038 133.605469,45.637207 C134.355473,44.7202103 135.366205,44.2617188 136.637695,44.2617188 C137.762701,44.2617188 138.650387,44.6542929 139.300781,45.4394531 C139.951175,46.2246133 140.276367,47.2910089 140.276367,48.6386719 L140.276367,49.3417969 L133.394531,49.3417969 C133.40625,50.6543034 133.712399,51.6562465 134.312988,52.3476562 C134.913577,53.039066 135.773432,53.3847656 136.892578,53.3847656 C137.437503,53.3847656 137.916502,53.3466801 138.32959,53.2705078 C138.742678,53.1943356 139.265622,53.0302747 139.898438,52.7783203 L139.898438,53.5693359 C139.359372,53.8037121 138.86133,53.9633785 138.404297,54.0483398 C137.947263,54.1333012 137.443362,54.1757812 136.892578,54.1757812 Z M136.637695,45.0351562 C135.717769,45.0351562 134.979495,45.3383759 134.422852,45.9448242 C133.866208,46.5512726 133.541016,47.4257755 133.447266,48.5683594 L139.353516,48.5683594 C139.353516,47.460932 139.113284,46.595218 138.632812,45.9711914 C138.152341,45.3471648 137.487309,45.0351562 136.637695,45.0351562 Z M148.836914,51.5126953 C148.836914,52.3681683 148.511722,53.0258766 147.861328,53.4858398 C147.210934,53.9458031 146.288092,54.1757812 145.092773,54.1757812 C143.815423,54.1757812 142.801762,53.9794942 142.051758,53.5869141 L142.051758,52.6464844 C143.0127,53.1269555 144.026362,53.3671875 145.092773,53.3671875 C146.036138,53.3671875 146.752439,53.2104508 147.241699,52.8969727 C147.730959,52.5834945 147.975586,52.1660182 147.975586,51.6445312 C147.975586,51.1640601 147.780764,50.7597673 147.391113,50.4316406 C147.001463,50.103514 146.361333,49.7812516 145.470703,49.4648438 C144.51562,49.1191389 143.844728,48.8217786 143.458008,48.5727539 C143.071287,48.3237292 142.779786,48.042482 142.583496,47.7290039 C142.387206,47.4155258 142.289062,47.0332054 142.289062,46.5820312 C142.289062,45.8671839 142.589352,45.3017599 143.189941,44.8857422 C143.79053,44.4697245 144.629877,44.2617188 145.708008,44.2617188 C146.739263,44.2617188 147.717769,44.4550762 148.643555,44.8417969 L148.318359,45.6328125 C147.380855,45.2460918 146.510746,45.0527344 145.708008,45.0527344 C144.928707,45.0527344 144.310549,45.1816393 143.853516,45.4394531 C143.396482,45.6972669 143.167969,46.0546852 143.167969,46.5117188 C143.167969,47.0097681 143.345213,47.4082016 143.699707,47.7070312 C144.054201,48.0058609 144.747065,48.3398419 145.77832,48.7089844 C146.639653,49.0195328 147.2666,49.2993152 147.65918,49.5483398 C148.05176,49.7973645 148.34619,50.0800765 148.54248,50.3964844 C148.738771,50.7128922 148.836914,51.0849588 148.836914,51.5126953 Z M152.167969,54 L151.297852,54 L151.297852,44.4462891 L152.167969,44.4462891 L152.167969,54 Z M151.174805,41.7919922 C151.174805,41.2294894 151.359373,40.9482422 151.728516,40.9482422 C151.910157,40.9482422 152.052246,41.0214836 152.154785,41.1679688 C152.257325,41.3144539 152.308594,41.5224596 152.308594,41.7919922 C152.308594,42.0556654 152.257325,42.2636711 152.154785,42.4160156 C152.052246,42.5683601 151.910157,42.6445312 151.728516,42.6445312 C151.359373,42.6445312 151.174805,42.3603544 151.174805,41.7919922 Z M162.820312,44.4462891 L162.820312,45.0527344 L160.842773,45.1757812 C161.37012,45.8320345 161.633789,46.5527304 161.633789,47.3378906 C161.633789,48.2578171 161.32764,49.0034151 160.715332,49.574707 C160.103024,50.145999 159.281255,50.4316406 158.25,50.4316406 C157.816404,50.4316406 157.51172,50.4140627 157.335938,50.3789062 C156.990233,50.5605478 156.726563,50.7744128 156.544922,51.0205078 C156.36328,51.2666028 156.272461,51.5273424 156.272461,51.8027344 C156.272461,52.1074234 156.388182,52.3300774 156.619629,52.4707031 C156.851075,52.6113288 157.239255,52.6816406 157.78418,52.6816406 L159.454102,52.6816406 C160.491216,52.6816406 161.285153,52.8911112 161.835938,53.3100586 C162.386722,53.729006 162.662109,54.3486287 162.662109,55.1689453 C162.662109,56.1767629 162.253422,56.9545871 161.436035,57.5024414 C160.618648,58.0502957 159.454109,58.3242188 157.942383,58.3242188 C156.741205,58.3242188 155.811038,58.0927758 155.151855,57.6298828 C154.492672,57.1669899 154.163086,56.5224651 154.163086,55.6962891 C154.163086,55.0400358 154.366697,54.4951194 154.773926,54.0615234 C155.181154,53.6279275 155.733395,53.332032 156.430664,53.1738281 C156.143553,53.0507806 155.913575,52.876466 155.740723,52.6508789 C155.56787,52.4252918 155.481445,52.1660171 155.481445,51.8730469 C155.481445,51.2343718 155.888668,50.6718774 156.703125,50.1855469 C156.146482,49.9570301 155.712892,49.598147 155.402344,49.1088867 C155.091795,48.6196265 154.936523,48.0585969 154.936523,47.4257812 C154.936523,46.4706983 155.239743,45.7045927 155.846191,45.1274414 C156.45264,44.5502901 157.271479,44.2617188 158.302734,44.2617188 C158.929691,44.2617188 159.416014,44.3232416 159.761719,44.4462891 L162.820312,44.4462891 Z M155.085938,55.6171875 C155.085938,56.9296941 156.061514,57.5859375 158.012695,57.5859375 C160.52052,57.5859375 161.774414,56.7861408 161.774414,55.1865234 C161.774414,54.6123018 161.578127,54.1962904 161.185547,53.9384766 C160.792967,53.6806628 160.157231,53.5517578 159.27832,53.5517578 L157.713867,53.5517578 C155.961905,53.5517578 155.085938,54.2402275 155.085938,55.6171875 Z M155.81543,47.4257812 C155.81543,48.1640662 156.039549,48.7368144 156.487793,49.144043 C156.936037,49.5512716 157.535152,49.7548828 158.285156,49.7548828 C159.082035,49.7548828 159.692869,49.5527364 160.117676,49.1484375 C160.542483,48.7441386 160.754883,48.158207 160.754883,47.390625 C160.754883,46.5761678 160.536623,45.9653341 160.100098,45.5581055 C159.663572,45.1508769 159.052738,44.9472656 158.267578,44.9472656 C157.505856,44.9472656 156.90674,45.1655252 156.470215,45.6020508 C156.033689,46.0385764 155.81543,46.6464805 155.81543,47.4257812 Z M171.442383,54 L171.442383,47.8037109 C171.442383,46.8427686 171.240236,46.1440452 170.835938,45.7075195 C170.431639,45.2709939 169.804692,45.0527344 168.955078,45.0527344 C167.812494,45.0527344 166.976077,45.3413057 166.445801,45.918457 C165.915525,46.4956084 165.650391,47.4316342 165.650391,48.7265625 L165.650391,54 L164.780273,54 L164.780273,44.4462891 L165.518555,44.4462891 L165.685547,45.7558594 L165.738281,45.7558594 C166.359378,44.7597606 167.463859,44.2617188 169.051758,44.2617188 C171.219737,44.2617188 172.303711,45.4247931 172.303711,47.7509766 L172.303711,54 L171.442383,54 Z M185.99707,51.5126953 C185.99707,52.3681683 185.671878,53.0258766 185.021484,53.4858398 C184.37109,53.9458031 183.448248,54.1757812 182.25293,54.1757812 C180.97558,54.1757812 179.961918,53.9794942 179.211914,53.5869141 L179.211914,52.6464844 C180.172856,53.1269555 181.186518,53.3671875 182.25293,53.3671875 C183.196294,53.3671875 183.912595,53.2104508 184.401855,52.8969727 C184.891116,52.5834945 185.135742,52.1660182 185.135742,51.6445312 C185.135742,51.1640601 184.94092,50.7597673 184.55127,50.4316406 C184.161619,50.103514 183.521489,49.7812516 182.630859,49.4648438 C181.675776,49.1191389 181.004885,48.8217786 180.618164,48.5727539 C180.231443,48.3237292 179.939942,48.042482 179.743652,47.7290039 C179.547362,47.4155258 179.449219,47.0332054 179.449219,46.5820312 C179.449219,45.8671839 179.749509,45.3017599 180.350098,44.8857422 C180.950687,44.4697245 181.790034,44.2617188 182.868164,44.2617188 C183.899419,44.2617188 184.877925,44.4550762 185.803711,44.8417969 L185.478516,45.6328125 C184.541011,45.2460918 183.670902,45.0527344 182.868164,45.0527344 C182.088863,45.0527344 181.470705,45.1816393 181.013672,45.4394531 C180.556638,45.6972669 180.328125,46.0546852 180.328125,46.5117188 C180.328125,47.0097681 180.505369,47.4082016 180.859863,47.7070312 C181.214357,48.0058609 181.907221,48.3398419 182.938477,48.7089844 C183.799809,49.0195328 184.426756,49.2993152 184.819336,49.5483398 C185.211916,49.7973645 185.506347,50.0800765 185.702637,50.3964844 C185.898927,50.7128922 185.99707,51.0849588 185.99707,51.5126953 Z M190.980469,53.4023438 C191.531253,53.4023438 192.011717,53.3554692 192.421875,53.2617188 L192.421875,53.9648438 C191.999998,54.1054695 191.513675,54.1757812 190.962891,54.1757812 C190.119136,54.1757812 189.496584,53.9501976 189.095215,53.4990234 C188.693846,53.0478493 188.493164,52.338872 188.493164,51.3720703 L188.493164,45.2021484 L187.078125,45.2021484 L187.078125,44.6923828 L188.493164,44.296875 L188.932617,42.1347656 L189.380859,42.1347656 L189.380859,44.4462891 L192.18457,44.4462891 L192.18457,45.2021484 L189.380859,45.2021484 L189.380859,51.2490234 C189.380859,51.981449 189.509764,52.5234357 189.767578,52.875 C190.025392,53.2265643 190.429685,53.4023438 190.980469,53.4023438 Z M195.243164,44.4462891 L195.243164,50.6337891 C195.243164,51.5947314 195.44531,52.2934548 195.849609,52.7299805 C196.253908,53.1665061 196.880855,53.3847656 197.730469,53.3847656 C198.867193,53.3847656 199.703611,53.0976591 200.239746,52.5234375 C200.775882,51.9492159 201.043945,51.0146549 201.043945,49.7197266 L201.043945,44.4462891 L201.905273,44.4462891 L201.905273,54 L201.166992,54 L201.008789,52.6816406 L200.956055,52.6816406 C200.334958,53.6777394 199.230477,54.1757812 197.642578,54.1757812 C195.468739,54.1757812 194.381836,53.0127069 194.381836,50.6865234 L194.381836,44.4462891 L195.243164,44.4462891 Z M208.602539,44.2617188 C209.293949,44.2617188 209.891599,44.3876941 210.395508,44.6396484 C210.899417,44.8916028 211.350584,45.3222626 211.749023,45.9316406 L211.801758,45.9316406 C211.766601,45.1933557 211.749023,44.4697301 211.749023,43.7607422 L211.749023,40.3242188 L212.610352,40.3242188 L212.610352,54 L212.039062,54 L211.819336,52.5410156 L211.749023,52.5410156 C211.022457,53.6308648 209.979499,54.1757812 208.620117,54.1757812 C207.301751,54.1757812 206.293949,53.7656291 205.59668,52.9453125 C204.899411,52.1249959 204.550781,50.9296954 204.550781,49.359375 C204.550781,47.707023 204.896481,46.4443403 205.587891,45.5712891 C206.2793,44.6982378 207.284173,44.2617188 208.602539,44.2617188 Z M208.602539,45.0527344 C207.559565,45.0527344 206.775882,45.4189417 206.251465,46.1513672 C205.727048,46.8837927 205.464844,47.9472587 205.464844,49.3417969 C205.464844,52.0488417 206.516591,53.4023438 208.620117,53.4023438 C209.698248,53.4023438 210.489255,53.0888703 210.993164,52.4619141 C211.497073,51.8349578 211.749023,50.8007885 211.749023,49.359375 L211.749023,49.2099609 C211.749023,47.7333911 211.501467,46.67139 211.006348,46.0239258 C210.511228,45.3764616 209.709966,45.0527344 208.602539,45.0527344 Z M216.688477,54 L215.818359,54 L215.818359,44.4462891 L216.688477,44.4462891 L216.688477,54 Z M215.695312,41.7919922 C215.695312,41.2294894 215.879881,40.9482422 216.249023,40.9482422 C216.430665,40.9482422 216.572753,41.0214836 216.675293,41.1679688 C216.777833,41.3144539 216.829102,41.5224596 216.829102,41.7919922 C216.829102,42.0556654 216.777833,42.2636711 216.675293,42.4160156 C216.572753,42.5683601 216.430665,42.6445312 216.249023,42.6445312 C215.879881,42.6445312 215.695312,42.3603544 215.695312,41.7919922 Z M227.789062,49.2099609 C227.789062,50.7685625 227.411137,51.9858355 226.655273,52.8618164 C225.89941,53.7377973 224.856452,54.1757812 223.526367,54.1757812 C222.688472,54.1757812 221.950199,53.9736348 221.311523,53.5693359 C220.672848,53.165037 220.183595,52.5849647 219.84375,51.8291016 C219.503905,51.0732384 219.333984,50.2002003 219.333984,49.2099609 C219.333984,47.6513594 219.71191,46.4370161 220.467773,45.5668945 C221.223637,44.696773 222.260736,44.2617188 223.579102,44.2617188 C224.891608,44.2617188 225.921383,44.7026323 226.668457,45.5844727 C227.415531,46.466313 227.789062,47.674797 227.789062,49.2099609 Z M220.248047,49.2099609 C220.248047,50.5224675 220.536618,51.546383 221.11377,52.2817383 C221.690921,53.0170935 222.506831,53.3847656 223.561523,53.3847656 C224.616216,53.3847656 225.432126,53.0170935 226.009277,52.2817383 C226.586429,51.546383 226.875,50.5224675 226.875,49.2099609 C226.875,47.891595 226.583499,46.8691443 226.000488,46.1425781 C225.417478,45.416012 224.598638,45.0527344 223.543945,45.0527344 C222.489253,45.0527344 221.676272,45.4145472 221.10498,46.1381836 C220.533689,46.86182 220.248047,47.8857356 220.248047,49.2099609 Z" id="sound-design-studio"></path>
                </g>
            </g>
        </g>
    </g>
</svg>