<svg xmlns="http://www.w3.org/2000/svg" viewBox="0 0 457.5 264.39999"><defs><style>.a,.e,.i{fill:none;}.a,.b,.h{stroke:#000;}.a,.b,.g,.h{stroke-linecap:round;}.a,.b,.e,.g,.h,.i{stroke-miterlimit:10;}.a,.g,.h{stroke-width:5.6693px;}.b,.h,.j{fill:#fff;}.b{stroke-width:5.22193px;}.c{fill:#0f0e0e;}.d{fill:#050504;}.e{stroke:#050504;stroke-width:0.69804px;}.f{fill:#f8b1b3;}.g{stroke:#fff;}.i{stroke:#080707;stroke-width:2.83465px;}</style></defs><title>empty-card+404</title><path class="a" d="M94.4,220.8s185.1-25.7,301.9-.1"/><path class="b" d="M305.16373,132.98611l-118.60909-4.02516a7.44378,7.44378,0,0,0-7.68638,6.99657c-1.4884,25.02057-5.21618,89.66265-5.86828,104.91631,7.8016,0,137.09585-.45294,147.60571.06976l-8.26478-101.11427A7.45482,7.45482,0,0,0,305.16373,132.98611Z"/><path d="M296.66693,156.64995c2.7,5.6,4.8,9.9,6.8,14.3,1.5,3.4,1.1,6.7-1.7,9.1-2.5,2.2-5.7,1.7-8.5.6-3.5-1.4-3.4-4.7-3-7.7C291.067,167.44995,294.86694,163.14995,296.66693,156.64995Z"/><path class="c" d="M278.2,184.1c-.1,3.3-1.6,5.1-4.5,5.2-3.2.1-5.1-1.8-5.1-4.9a4.36182,4.36182,0,0,1,4.8-4.6A4.45755,4.45755,0,0,1,278.2,184.1Z"/><path class="d" d="M225.4,184.6c-.2,2.9-1.7,4.7-4.7,4.7-2.9,0-4.7-1.6-4.8-4.5-.1-3.2,1.7-5,4.9-5C223.6,179.89995,225.2,181.6,225.4,184.6Z"/><path class="e" d="M190.67821,138.36113a1.8323,1.8323,0,0,1-2.03035,1.87262,1.80169,1.80169,0,0,1-1.9175-1.949,1.835,1.835,0,0,1,2.11842-1.99383A1.87785,1.87785,0,0,1,190.67821,138.36113Z"/><path class="e" d="M198.04014,138.65865a1.8323,1.8323,0,0,1-2.03035,1.87262,1.80169,1.80169,0,0,1-1.9175-1.949,1.835,1.835,0,0,1,2.11842-1.99383A1.87785,1.87785,0,0,1,198.04014,138.65865Z"/><path class="e" d="M205.81291,138.97277a1.8323,1.8323,0,0,1-2.03035,1.87262,1.80169,1.80169,0,0,1-1.9175-1.949,1.835,1.835,0,0,1,2.11842-1.99383A1.87785,1.87785,0,0,1,205.81291,138.97277Z"/><path class="f" d="M208,221.6h0a8.81288,8.81288,0,0,1-8.8-8.8h0A8.81288,8.81288,0,0,1,208,204h0a8.81288,8.81288,0,0,1,8.8,8.8h0A8.74906,8.74906,0,0,1,208,221.6Z"/><path class="f" d="M288.4,221.6h0a8.81287,8.81287,0,0,1-8.8-8.8h0a8.81288,8.81288,0,0,1,8.8-8.8h0a8.81287,8.81287,0,0,1,8.8,8.8h0A8.87808,8.87808,0,0,1,288.4,221.6Z"/><path class="g" d="M115,49a19.92249,19.92249,0,0,0-4.2.4,36.37226,36.37226,0,0,0-55.4,0,12.74986,12.74986,0,0,0-2-.1A22.10182,22.10182,0,0,0,53,93.5a36.40886,36.40886,0,0,0,57.8,3.1,29.83842,29.83842,0,0,0,4.2.4,24.00021,24.00021,0,0,0,0-48Z"/><path class="h" d="M378.6,12.9a36.49124,36.49124,0,0,0-32.9,20.8,24.14455,24.14455,0,0,0-18.3,8.7,22.64922,22.64922,0,0,0-6.9-1.1,22.10007,22.10007,0,1,0,15.3,38.1,24.42963,24.42963,0,0,0,10.1,2.2,23.93779,23.93779,0,0,0,11.3-2.8,36.35354,36.35354,0,0,0,57.8-29.4A36.48954,36.48954,0,0,0,378.6,12.9Z"/><path class="h" d="M230.4,34a14.91891,14.91891,0,0,0-2.1.2,22.0643,22.0643,0,0,0-41.5,4.5h-.5a13.4,13.4,0,0,0,0,26.8,13.22,13.22,0,0,0,9.4-3.9,21.83225,21.83225,0,0,0,26.5-1,14.12515,14.12515,0,0,0,8.1,2.5,14.55043,14.55043,0,0,0,.1-29.1Z"/><path class="i" d="M250.16534,212.8s-3.42258,9.726,0,10.726,5.67258-5,5.67258-5,3,5.25,7,4,0-9.726,0-9.726"/><path class="j" d="M67.418,83.217V77.19941H57.15046V75.22773l9.85938-14.1084h3.22949V74.85371h3.09375v2.3457H70.23933V83.217Zm0-8.36328v-7.377q0-1.73437.10156-3.46777H67.418c-.68066,1.292-1.22461,2.24365-1.83594,3.26367l-5.40527,7.51318v.06787Z"/><path class="j" d="M90.2989,71.92988c0,7.51367-2.78809,11.66113-7.68359,11.66113-4.31738,0-7.24121-4.0459-7.30957-11.355,0-7.41113,3.19629-11.49072,7.68359-11.49072C87.64655,60.74531,90.2989,64.89277,90.2989,71.92988Zm-12.001.34033c0,5.74512,1.76758,9.00879,4.4873,9.00879,3.05957,0,4.52148-3.56934,4.52148-9.21289,0-5.43945-1.39355-9.00928-4.4873-9.00928C80.20124,63.05684,78.29792,66.25264,78.29792,72.27021Z"/><path class="j" d="M102.30085,83.217V77.19941H92.03327V75.22773l9.85938-14.1084h3.22949V74.85371h3.09375v2.3457h-3.09375V83.217Zm0-8.36328v-7.377q0-1.73437.10156-3.46777h-.10156c-.68066,1.292-1.22461,2.24365-1.83594,3.26367l-5.40527,7.51318v.06787Z"/><line class="b" x1="180.4737" y1="146.05" x2="310.7237" y2="150.3"/></svg>