<?xml version="1.0" encoding="UTF-8" standalone="no"?>
<svg width="55px" height="55px" viewBox="0 0 55 55" version="1.1" xmlns="http://www.w3.org/2000/svg" xmlns:xlink="http://www.w3.org/1999/xlink">
    <!-- Generator: Sketch 40.3 (33839) - http://www.bohemiancoding.com/sketch -->
    <title>logo</title>
    <desc>Created with Sketch.</desc>
    <defs></defs>
    <g id="Page-1" stroke="none" stroke-width="1" fill="none" fill-rule="evenodd">
        <g id="logo" transform="translate(-1.000000, 0.000000)" fill="#000000">
            <g id="symbol_1">
                <g id="Group_3960">
                    <path d="M55.058,15.4 C54.893,14.111 54.658,12.856 54.463,11.567 L54.394,11.567 C54.1416464,10.4374453 53.7878786,9.3329666 53.337,8.267 C53.106,7.738 52.874,7.243 52.61,6.747 C52.277551,6.176566 51.9136565,5.62504892 51.52,5.095 C51.2611551,4.81338545 50.9853053,4.54788843 50.694,4.3 C50.1927752,3.84815783 49.6379556,3.45958259 49.042,3.143 C47.339971,2.20317549 45.5164583,1.50257514 43.623,1.061 C42.3754907,0.741993234 41.1049544,0.520986795 39.823,0.4 C38.338,0.231 36.884,0.1 35.394,0.033 C33.7191634,-0.0331298676 32.0418775,0.000262246242 30.371,0.133 C28.1933943,0.292917688 26.0293179,0.601975992 23.894,1.058 C23.0346667,1.258 22.2086667,1.48933333 21.416,1.752 C20.3924064,2.10530486 19.388615,2.51356458 18.409,2.975 C17.7374464,3.33521783 17.0864416,3.73249769 16.459,4.165 C15.93,4.528 15.435,4.892 14.939,5.288 C14.476,5.688 14.014,6.081 13.551,6.511 C12.956,7.073 12.394,7.668 11.833,8.262 C11.503,8.592 11.205,8.956 10.875,9.319 C10.581789,9.6455177 10.3060698,9.98732937 10.049,10.343 C9.719,10.743 9.388,11.136 9.091,11.533 C8.728,11.996 8.397,12.491 8.067,12.987 C7.704,13.487 7.34,14.011 7.01,14.54 C6.547,15.3 6.085,16.06 5.655,16.82 C5.355,17.32 5.06,17.844 4.796,18.373 C4.296,19.364 3.838,20.389 3.375,21.38 C2.78191402,22.6970089 2.28494851,24.0552253 1.888,25.444 C1.49875205,26.795752 1.22246869,28.1775032 1.062,29.575 C1.062,29.575 -0.161,38.497 8.067,46.725 C16.758,55.416 25.977,54.457 25.977,54.457 C26.5235139,54.4179193 27.0653815,54.3295604 27.596,54.193 C28.62,53.962 29.645,53.73 30.669,53.433 C31.561,53.169 32.42,52.838 33.279,52.508 C33.907,52.244 34.568,51.979 35.196,51.715 C35.725,51.484 36.551,51.087 37.046,50.823 C37.674,50.523 38.269,50.195 38.863,49.865 C39.363,49.601 39.821,49.303 40.317,49.039 C40.647,48.839 40.978,48.609 41.308,48.411 C41.6395838,48.220979 41.9594898,48.0112702 42.266,47.783 C42.828,47.383 43.356,46.99 43.918,46.593 C44.281,46.329 44.645,46.064 45.008,45.767 C45.636,45.267 46.231,44.743 46.825,44.214 C47.585,43.487 48.345,42.793 49.072,42 C49.625597,41.3794451 50.1440725,40.7284296 50.625,40.05 C51.0936254,39.4104448 51.5134766,38.7365434 51.881,38.034 C52.6179177,36.6155779 53.1941543,35.1193082 53.599,33.573 C53.929,32.416 54.194,31.227 54.425,30.073 C54.6902681,28.784097 54.8888653,27.482367 55.02,26.173 C55.152,24.851 55.251,23.496 55.284,22.142 C55.317,20.82 55.284,19.465 55.251,18.111 C55.251369,17.2038882 55.1868711,16.297911 55.058,15.4 L55.058,15.4 Z M33.018,42.364 C26.5416318,43.8560349 19.8043775,41.2982013 15.949983,35.8840388 C12.0955886,30.4698762 11.883763,23.2665271 15.4133486,17.6352272 C18.9429342,12.0039272 25.5182425,9.05461724 32.0710949,10.1635078 C38.6239473,11.2723984 43.8627633,16.220925 45.343,22.7 C47.3624849,31.5318557 41.8471026,40.3305126 33.018,42.362 L33.018,42.364 Z" id="Path_3177"></path>
                </g>
            </g>
        </g>
    </g>
</svg>