<svg xmlns="http://www.w3.org/2000/svg" viewBox="0 0 457.5 264.39999"><defs><style>.a{fill:none;}.a,.b{stroke:#000;stroke-linecap:round;stroke-miterlimit:10;stroke-width:5.6693px;}.b{fill:#fff;}.c{fill:#080707;}.d{fill:#0f0e0e;}.e{fill:#050504;}.f{fill:#f8b1b3;}</style></defs><title>empty-card+404</title><path class="a" d="M94.4,220.8s185.1-25.7,301.9-.1"/><path class="b" d="M311.8,124l-132.5-5.3s-6.8,134-6.3,132.2c.5-1.7,147.6,0,147.6,0Z"/><path class="a" d="M203.9,141s-10.2-59.5,39.8-59.5,44.1,59.4,44.1,59.4"/><path d="M300.3,148.39995c2.7,5.6,4.8,9.9,6.8,14.3,1.5,3.4,1.1,6.7-1.7,9.1-2.5,2.2-5.7,1.7-8.5.6-3.5-1.4-3.4-4.7-3-7.7C294.7,159.19995,298.5,154.89995,300.3,148.39995Z"/><path class="c" d="M254.7,213.89995c3.3-.1,6.3,1.4,9,4.3a4.592,4.592,0,0,1,1.3,4.1,2.754,2.754,0,0,1-2.3,2.8c-6,1.3-12,2.7-18,4-1.2.3-2.5.5-3.2-1.6-.7-2.2.1-4,1-5.6C245.8,216.39995,250,214.1,254.7,213.89995Z"/><path class="d" d="M278.2,184.1c-.1,3.3-1.6,5.1-4.5,5.2-3.2.1-5.1-1.8-5.1-4.9a4.36182,4.36182,0,0,1,4.8-4.6A4.45755,4.45755,0,0,1,278.2,184.1Z"/><path class="e" d="M225.4,184.6c-.2,2.9-1.7,4.7-4.7,4.7-2.9,0-4.7-1.6-4.8-4.5-.1-3.2,1.7-5,4.9-5C223.6,179.89995,225.2,181.6,225.4,184.6Z"/><path class="f" d="M208,221.6h0a8.81288,8.81288,0,0,1-8.8-8.8h0A8.81288,8.81288,0,0,1,208,204h0a8.81288,8.81288,0,0,1,8.8,8.8h0A8.74906,8.74906,0,0,1,208,221.6Z"/><path class="f" d="M288.4,221.6h0a8.81287,8.81287,0,0,1-8.8-8.8h0a8.81288,8.81288,0,0,1,8.8-8.8h0a8.81287,8.81287,0,0,1,8.8,8.8h0A8.87808,8.87808,0,0,1,288.4,221.6Z"/><path class="b" d="M115,49a19.92249,19.92249,0,0,0-4.2.4,36.37226,36.37226,0,0,0-55.4,0,12.74986,12.74986,0,0,0-2-.1A22.10182,22.10182,0,0,0,53,93.5a36.40886,36.40886,0,0,0,57.8,3.1,29.83842,29.83842,0,0,0,4.2.4,24.00021,24.00021,0,0,0,0-48Z"/><path class="b" d="M378.6,12.9a36.49124,36.49124,0,0,0-32.9,20.8,24.14455,24.14455,0,0,0-18.3,8.7,22.64922,22.64922,0,0,0-6.9-1.1,22.10007,22.10007,0,1,0,15.3,38.1,24.42963,24.42963,0,0,0,10.1,2.2,23.93779,23.93779,0,0,0,11.3-2.8,36.35354,36.35354,0,0,0,57.8-29.4A36.48954,36.48954,0,0,0,378.6,12.9Z"/><path class="b" d="M230.4,34a14.91891,14.91891,0,0,0-2.1.2,22.0643,22.0643,0,0,0-41.5,4.5h-.5a13.4,13.4,0,0,0,0,26.8,13.22,13.22,0,0,0,9.4-3.9,21.83225,21.83225,0,0,0,26.5-1,14.12515,14.12515,0,0,0,8.1,2.5,14.55043,14.55043,0,0,0,.1-29.1Z"/></svg>